<svg width="20" height="22" viewBox="0 0 20 22" fill="none" xmlns="http://www.w3.org/2000/svg">
<path d="M7.26525 0.134341C6.39831 0.323673 5.68085 0.722266 4.97334 1.38991C3.89714 2.42625 3.48858 3.48252 3.55834 5.05697C3.58823 5.91394 3.62809 6.10327 3.9669 6.79085C5.82035 10.6971 11.4206 10.3782 12.7957 6.28264C13.0747 5.46552 13.0747 4.22989 12.8057 3.36295C12.3075 1.72871 10.9323 0.493075 9.24826 0.134341C8.43114 -0.0450258 8.06244 -0.0450258 7.26525 0.134341Z" fill="url(#paint0_linear_7911_353)"/>
<path d="M13.3333 10.5976C11.0414 11.0958 9.29752 13.1586 9.14805 15.5302C8.95872 18.6193 11.3901 21.24 14.4493 21.25C15.964 21.25 17.2893 20.7119 18.3356 19.6656C19.3819 18.6193 19.8802 17.3836 19.8802 15.8192C19.8802 12.4012 16.7014 9.87016 13.3333 10.5976ZM17.6381 13.886C18.1164 14.3543 18.0167 14.5636 16.6117 16.1779C14.5888 18.4897 14.3696 18.6591 13.6322 18.4698C13.3233 18.4001 11.44 16.5964 11.3005 16.2576C11.1908 15.9786 11.3702 15.4604 11.6094 15.3309C12.0379 15.1017 12.3268 15.2113 13.0144 15.879C13.4628 16.3174 13.7618 16.5267 13.9312 16.5267C14.1105 16.5267 14.4095 16.2477 15.1967 15.3508C15.7547 14.7131 16.3526 14.0654 16.5021 13.9059C16.8708 13.5572 17.3092 13.5472 17.6381 13.886Z" fill="url(#paint1_linear_7911_353)"/>
<path d="M5.25147 11.1456C4.1653 11.4346 2.99941 12.0823 2.17233 12.8695C1.30539 13.6966 0.747362 14.5336 0.328839 15.6397C0.0298945 16.417 0.00996483 16.5665 0 17.7224C0 18.9082 0.00996483 18.9879 0.26905 19.4363C0.428488 19.6855 0.727433 20.0542 0.956624 20.2535C1.69402 20.8812 1.90328 20.9111 5.43083 20.9111C8.36049 20.9111 8.59965 20.9012 8.74912 20.7318C9.00821 20.4528 8.95838 20.1638 8.51993 19.4363C7.28429 17.3836 7.21454 14.9422 8.32063 12.6802C9.12778 11.0559 9.05803 10.9463 7.24443 10.9563C6.33763 10.9563 5.7796 11.0061 5.25147 11.1456Z" fill="url(#paint2_linear_7911_353)"/>
<defs>
<linearGradient id="paint0_linear_7911_353" x1="8.27852" y1="9.54541" x2="8.27852" y2="-0.000184059" gradientUnits="userSpaceOnUse">
<stop stop-color="#FF295D"/>
<stop offset="0.485577" stop-color="#E31B95"/>
<stop offset="1" stop-color="#C817AE"/>
</linearGradient>
<linearGradient id="paint1_linear_7911_353" x1="14.5089" y1="21.25" x2="14.5089" y2="10.4723" gradientUnits="userSpaceOnUse">
<stop stop-color="#FF295D"/>
<stop offset="0.485577" stop-color="#E31B95"/>
<stop offset="1" stop-color="#C817AE"/>
</linearGradient>
<linearGradient id="paint2_linear_7911_353" x1="4.45332" y1="20.9111" x2="4.45332" y2="10.9557" gradientUnits="userSpaceOnUse">
<stop stop-color="#FF295D"/>
<stop offset="0.485577" stop-color="#E31B95"/>
<stop offset="1" stop-color="#C817AE"/>
</linearGradient>
</defs>
</svg>
