<svg width="14" height="14" viewBox="0 0 14 14" fill="none" xmlns="http://www.w3.org/2000/svg">
<path d="M6.55447 0.435019C6.23231 0.516445 5.93728 0.767505 5.78807 1.07963L5.6999 1.26623L5.68294 3.44435C5.66599 5.47658 5.6626 5.62586 5.60495 5.68353C5.5473 5.74121 5.39809 5.7446 3.36678 5.76156L1.18966 5.77853L1.00315 5.86674C0.765767 5.9787 0.54195 6.20262 0.430042 6.4401C0.304569 6.70813 0.304569 7.12204 0.430042 7.39006C0.54195 7.62755 0.765767 7.85147 1.00315 7.96343L1.18966 8.05164L3.36678 8.0686C5.39809 8.08557 5.5473 8.08896 5.60495 8.14663C5.6626 8.20431 5.66599 8.35359 5.68294 10.3858L5.6999 12.5639L5.78807 12.7505C5.89998 12.988 6.12379 13.2119 6.36118 13.3239C6.51717 13.3951 6.59856 13.4121 6.83594 13.4121C7.07332 13.4121 7.15471 13.3951 7.3107 13.3239C7.54808 13.2119 7.7719 12.988 7.8838 12.7505L7.97197 12.5639L7.98893 10.3858C8.00589 8.35359 8.00928 8.20431 8.06693 8.14663C8.12458 8.08896 8.27379 8.08557 10.3051 8.0686L12.4822 8.05164L12.6687 7.96343C12.9061 7.85147 13.1299 7.62755 13.2418 7.39006C13.3673 7.12204 13.3673 6.70813 13.2418 6.4401C13.1299 6.20262 12.9061 5.9787 12.6687 5.86674L12.4822 5.77853L10.3051 5.76156C8.27379 5.7446 8.12458 5.74121 8.06693 5.68353C8.00928 5.62586 8.00589 5.47658 7.98893 3.44435L7.97197 1.26623L7.8838 1.07963C7.7719 0.842144 7.54808 0.618226 7.32087 0.513052C7.12079 0.421449 6.75794 0.38413 6.55447 0.435019Z" fill="#04C373"/>
</svg>
