<svg width="17" height="13" viewBox="0 0 17 13" fill="none" xmlns="http://www.w3.org/2000/svg">
<path d="M14.6356 0.228037C14.4006 0.297027 14.0993 0.577916 10.386 4.15555L6.38662 8.00422L4.84408 6.52093C3.34751 5.08199 3.28622 5.03271 3.00019 4.95387C2.45366 4.8011 2.07058 4.93908 1.47808 5.51564C0.880479 6.09221 0.737462 6.45194 0.895802 6.97922C0.977526 7.26504 1.00306 7.29461 3.46499 9.66984C5.66643 11.7938 5.978 12.0746 6.17209 12.1239C6.66754 12.2471 6.33043 12.5379 11.714 7.35374C15.2945 3.8993 16.6327 2.57863 16.7196 2.41601C16.8881 2.08584 16.8728 1.67683 16.6787 1.34174C16.5101 1.04114 15.887 0.444863 15.5908 0.301955C15.3098 0.163975 14.9421 0.134407 14.6356 0.228037Z" fill="#C817AE"/>
</svg>
