<svg width="20" height="22" viewBox="0 0 20 22" fill="none" xmlns="http://www.w3.org/2000/svg">
<path d="M8.22567 0.125198C6.99429 0.431798 5.74272 1.33116 5.06648 2.41448C3.72407 4.55046 4.18836 7.5347 6.11617 9.12902C7.1255 9.95684 8.08436 10.3043 9.38639 10.3043C10.8297 10.3043 11.9804 9.82398 12.9796 8.8122C14.6551 7.11568 14.968 4.4176 13.7164 2.4247C13.3026 1.77062 12.3538 0.871258 11.728 0.554439C10.6985 0.0229979 9.31574 -0.140522 8.22567 0.125198Z" fill="white"/>
<path d="M13.3129 11.1118C12.4247 11.398 11.7586 11.817 11.1126 12.4915C10.1436 13.5237 9.68945 14.6581 9.68945 16.0889C9.68945 18.4702 11.2438 20.4733 13.5754 21.0865C15.8161 21.6691 18.2788 20.504 19.3184 18.368C20.0754 16.8043 20.0653 15.2305 19.2982 13.6872C18.7229 12.5324 17.5319 11.5104 16.2703 11.122C15.4426 10.8563 14.1002 10.8563 13.3129 11.1118ZM15.9977 12.7674C16.3005 12.8799 16.5529 13.0025 16.5529 13.0434C16.5529 13.1354 11.8797 17.8672 11.7889 17.8672C11.7586 17.8672 11.6274 17.6015 11.5062 17.2745C11.3246 16.8043 11.2943 16.5386 11.3246 15.8743C11.4053 14.3311 12.243 13.2273 13.7066 12.6959C14.2819 12.4915 15.3518 12.5222 15.9977 12.7674ZM17.8448 14.4129C17.8953 14.4844 18.0265 14.8217 18.1173 15.1487C18.8541 17.7037 16.4418 20.1565 13.8782 19.4513C13.5249 19.3593 13.1716 19.206 13.1111 19.1243C13 19.0016 13.3735 18.5826 15.3013 16.6306C16.5731 15.3429 17.6429 14.2902 17.6732 14.2902C17.7136 14.2902 17.7842 14.3515 17.8448 14.4129Z" fill="white"/>
<path d="M5.28887 12.0418C2.28108 12.4915 0 15.1282 0 18.1738C0 18.7665 0.0605596 19.0629 0.242238 19.4615C0.534943 20.1054 1.10017 20.6879 1.70576 20.9741C2.13977 21.1785 2.35173 21.1887 5.36962 21.2193L8.57927 21.25L8.8316 20.9945C9.20506 20.6061 9.17478 19.9418 8.74077 19.0323C8.27648 18.0716 8.07461 17.162 8.07461 16.0582C8.07461 14.9851 8.33704 13.8098 8.76095 13.0229C9.08394 12.4097 9.07384 12.2973 8.68021 12.0929C8.35722 11.9294 6.26792 11.8987 5.28887 12.0418Z" fill="white"/>
</svg>
