<svg width="21" height="21" viewBox="0 0 21 21" fill="none" xmlns="http://www.w3.org/2000/svg">
<path d="M4.27648 0.335957C3.30433 0.514256 2.55292 0.913308 1.8567 1.60953C1.25812 2.20811 0.884541 2.84914 0.659543 3.66847L0.544922 4.07601V8.42738C0.544922 12.7618 0.544922 12.7787 0.638317 13.1269C1.00765 14.5108 1.82698 15.5297 3.04961 16.1325C3.56753 16.3872 3.97507 16.5103 4.51422 16.5782C5.00666 16.6377 15.9933 16.6377 16.4858 16.5782C17.0207 16.5103 17.4282 16.3872 17.9504 16.1325C19.156 15.5466 19.9966 14.5023 20.3617 13.1226C20.4551 12.7787 20.4551 12.7618 20.4551 8.42738V4.07601L20.3405 3.66847C20.1155 2.84914 19.7419 2.20811 19.1433 1.60953C18.5447 1.01095 17.9037 0.637368 17.0844 0.412371L16.6768 0.297749L10.6274 0.289259C5.83873 0.285013 4.51422 0.293505 4.27648 0.335957ZM10.8651 5.83354C11.2047 5.98637 11.434 6.40664 11.3703 6.76749C11.3108 7.1156 11.0009 7.42125 10.6316 7.49342C10.4915 7.5189 9.38775 7.53588 7.78305 7.53588C6.17835 7.53588 5.07459 7.5189 4.9345 7.49342C4.25101 7.36182 3.96234 6.59768 4.3996 6.07127C4.67129 5.74014 4.51846 5.75288 7.78305 5.75288C10.5212 5.75288 10.6995 5.76137 10.8651 5.83354ZM16.3669 9.50142C16.9485 9.84104 16.9485 10.6646 16.3669 11.0042L16.1674 11.1231H10.5H4.83261L4.63308 11.0042C3.96234 10.6137 4.09394 9.63302 4.84535 9.40378C4.90902 9.38255 7.48164 9.36982 10.5637 9.37406L16.1674 9.38255L16.3669 9.50142Z" fill="#ADADAD"/>
<path d="M4.66325 18.4758C4.02222 18.8112 3.96279 19.6645 4.54863 20.0805L4.73542 20.2079H10.5005H16.2655L16.4523 20.0805C17.0254 19.673 16.9744 18.8027 16.3546 18.4886C16.1976 18.4037 16.0829 18.4037 10.492 18.4037C5.38495 18.4079 4.77788 18.4122 4.66325 18.4758Z" fill="#ADADAD"/>
</svg>
