<svg width="17" height="20" viewBox="0 0 17 20" fill="none" xmlns="http://www.w3.org/2000/svg">
<path d="M4.52424 0.847787C4.39588 0.916242 4.30604 1.00609 4.23758 1.13444C4.14346 1.30557 4.13918 1.36547 4.13918 2.0928V2.87146L3.75841 2.9228C2.71448 3.06399 1.77751 3.56028 1.20421 4.27477C0.763537 4.82241 0.481163 5.52834 0.352812 6.3669C0.297193 6.76479 0.297193 6.8418 0.348534 6.97015C0.476885 7.2782 -0.271832 7.25253 8.51169 7.25253H16.4181L16.5551 7.12845C16.692 7.00866 16.6962 6.99155 16.6877 6.71345C16.6706 6.15298 16.478 5.44277 16.1914 4.87375C15.6609 3.82554 14.5742 3.1025 13.2479 2.9228L12.8671 2.87146V2.0928C12.8671 1.36547 12.8628 1.30557 12.7687 1.13444C12.6574 0.92052 12.3836 0.749385 12.1654 0.749385C11.9857 0.749385 11.6734 0.911963 11.5665 1.06171C11.4852 1.17294 11.4766 1.25423 11.4638 1.99439L11.4509 2.80301H8.50313H5.55533L5.54249 1.99867C5.52966 1.23284 5.52538 1.19434 5.42698 1.05315C5.31146 0.890572 5.04192 0.753663 4.84084 0.749385C4.7681 0.749385 4.62692 0.792169 4.52424 0.847787Z" fill="#ADADAD"/>
<path d="M1.01639 8.61744C0.716901 8.68161 0.498703 8.84847 0.357517 9.12229C0.297619 9.24636 0.289062 9.60574 0.289062 12.5707C0.289062 16.233 0.293341 16.2971 0.562879 17.1015C1.08056 18.6374 2.28279 19.5145 4.11394 19.6985C4.7557 19.7626 12.2514 19.7626 12.8932 19.6985C14.6473 19.523 15.8324 18.7016 16.3801 17.2897C16.4528 17.1015 16.5512 16.7849 16.6025 16.5838C16.6881 16.2287 16.6924 16.1046 16.7052 12.7418C16.7181 9.57152 16.7138 9.25492 16.6496 9.12656C16.5512 8.92976 16.4228 8.79713 16.226 8.69445L16.0549 8.60032L8.61052 8.59604C4.51611 8.59177 1.09768 8.60032 1.01639 8.61744ZM5.62849 11.5995C5.95364 11.7321 6.18895 12.0744 6.19323 12.4081C6.19323 12.5022 6.14617 12.6776 6.09055 12.7974C5.94081 13.1226 5.66271 13.2937 5.28622 13.2894C4.81131 13.2894 4.4391 12.9044 4.4391 12.4252C4.4391 11.7877 5.05518 11.3599 5.62849 11.5995ZM8.8715 11.6123C9.15387 11.7407 9.40202 12.1172 9.40202 12.4124C9.40202 12.7118 9.17954 13.0541 8.88434 13.2039C8.38377 13.4563 7.72062 13.114 7.62649 12.5493C7.54092 12.0401 7.97732 11.531 8.50356 11.531C8.61052 11.531 8.7731 11.5695 8.8715 11.6123ZM11.999 11.5824C12.5937 11.8433 12.7606 12.5535 12.337 13.0199C11.8108 13.6018 10.8139 13.191 10.8139 12.3995C10.8139 11.8305 11.4899 11.3642 11.999 11.5824ZM5.80818 14.8853C6.01782 15.0222 6.19323 15.3559 6.19323 15.6169C6.18895 16.0747 5.76539 16.4939 5.30761 16.4939C5.0509 16.4939 4.72147 16.3142 4.58456 16.1089C4.35353 15.7581 4.40487 15.2447 4.70435 14.9666C4.98245 14.7056 5.48302 14.6671 5.80818 14.8853ZM8.91428 14.8468C9.41913 15.0949 9.54321 15.7281 9.17527 16.1731C8.72604 16.7207 7.84041 16.5239 7.64788 15.8308C7.49814 15.2917 7.93026 14.7398 8.50356 14.7398C8.62763 14.7398 8.77738 14.7783 8.91428 14.8468ZM12.0461 14.804C12.4054 14.958 12.5851 15.2575 12.5595 15.6639C12.5381 16.019 12.3883 16.2501 12.0846 16.3913C11.8279 16.5111 11.6054 16.5196 11.3786 16.4255C10.8224 16.1945 10.647 15.5441 11.0107 15.0564C11.2203 14.774 11.6952 14.6585 12.0461 14.804Z" fill="#ADADAD"/>
</svg>
