<svg width="22" height="22" viewBox="0 0 22 22" fill="none" xmlns="http://www.w3.org/2000/svg">
<path d="M10.0747 15.4304C10.0747 17.1957 10.0753 18.9604 10.0742 20.7257C10.0736 21.1275 9.94989 21.2128 9.57866 21.064C6.56986 19.8606 3.5616 18.6566 0.553352 17.451C0.10911 17.2732 0.000418045 17.1093 0.000418045 16.6283C-0.000139348 13.1262 -0.000139348 9.62406 0.000418045 6.1214C0.000418045 5.6989 0.138094 5.60972 0.534401 5.77693C3.37432 6.97533 6.21424 8.17484 9.05416 9.37324C9.29384 9.47412 9.5324 9.57836 9.77598 9.66865C9.99894 9.75115 10.0798 9.89384 10.0786 10.1346C10.0708 11.8999 10.0747 13.6652 10.0747 15.4304Z" fill="white"/>
<path d="M21.4454 11.4323C21.4454 13.1602 21.446 14.8882 21.4449 16.6161C21.4449 17.1133 21.3417 17.2721 20.878 17.4577C17.9645 18.6238 15.0499 19.7871 12.1353 20.9515C12.006 21.0033 11.8806 21.0663 11.7479 21.1064C11.5093 21.1789 11.3906 21.0942 11.3728 20.85C11.3672 20.7759 11.3705 20.7012 11.3705 20.6271C11.3705 17.1618 11.3744 13.697 11.3633 10.2323C11.3622 9.91287 11.4642 9.75067 11.7579 9.62749C14.808 8.35273 17.8525 7.06571 20.8986 5.78259C21.3105 5.60924 21.4443 5.69508 21.4443 6.13765C21.446 7.90235 21.4454 9.66706 21.4454 11.4323Z" fill="white"/>
<path d="M10.7161 0.000750761C11.1052 0.00743948 11.4162 0.235413 11.7484 0.389811C14.4936 1.66457 17.2332 2.94992 19.975 4.23192C20.0001 4.24363 20.0257 4.25478 20.0508 4.26704C20.155 4.31776 20.2464 4.38298 20.2509 4.51173C20.2559 4.6561 20.1556 4.72745 20.0413 4.77761C19.6238 4.95876 19.2063 5.13824 18.7866 5.31438C16.1847 6.40743 13.5822 7.49825 10.982 8.59408C10.807 8.66821 10.6576 8.6749 10.4781 8.59966C7.49326 7.33995 4.50619 6.08637 1.52024 4.82889C1.37866 4.76925 1.20141 4.72466 1.19639 4.52623C1.19138 4.32556 1.36751 4.28042 1.50798 4.2152C4.3674 2.87969 7.22739 1.54529 10.0879 0.210888C10.2886 0.116689 10.4787 -0.0109545 10.7161 0.000750761Z" fill="white"/>
</svg>
