<svg width="28" height="23" viewBox="0 0 28 23" fill="none" xmlns="http://www.w3.org/2000/svg">
<path d="M17.7442 1.44999C19.8042 1.44999 21.8642 1.44308 23.9242 1.45172C26.2488 1.46123 27.8662 3.62065 27.2844 5.87689C26.6914 8.17635 26.1346 10.4862 25.5727 12.7934C25.4189 13.4262 25.2071 14.0391 24.94 14.6287C24.3046 16.0308 23.167 16.7501 21.6611 16.7674C18.2905 16.8054 14.9191 16.7959 11.5486 16.7725C9.82316 16.7604 8.57747 15.7603 8.03977 14.0331C6.97563 10.6098 5.91753 7.18568 4.86029 3.75983C4.556 2.77089 3.89123 2.26604 2.85215 2.25826C2.33348 2.2548 1.8148 2.26604 1.29613 2.25221C0.74633 2.23752 0.431667 1.95397 0.423022 1.49754C0.414377 1.02036 0.735092 0.709151 1.30564 0.712608C2.209 0.717795 3.12359 0.603686 4.00534 0.912299C5.0937 1.29353 5.86998 2.01103 6.22355 3.10803C6.90474 5.21817 7.54444 7.34128 8.20143 9.45835C8.65354 10.9158 9.0996 12.375 9.55777 13.8299C9.82921 14.6909 10.5337 15.2217 11.4302 15.2234C14.8872 15.2303 18.345 15.2269 21.802 15.2243C22.4737 15.2234 22.9837 14.9079 23.371 14.3763C23.4453 14.2743 23.5689 14.1653 23.4989 14.0339C23.4263 13.8973 23.2629 13.9639 23.1419 13.9639C19.7567 13.9605 16.3714 13.9553 12.9862 13.963C11.616 13.9665 10.6271 13.3311 9.92257 12.197C9.62087 11.7111 9.52232 11.1501 9.38574 10.6072C8.97253 8.95955 8.54981 7.31449 8.16771 5.65905C7.67324 3.51432 9.31572 1.46209 11.5201 1.45086C13.5957 1.44135 15.6695 1.44999 17.7442 1.44999Z" fill="black"/>
<path d="M16.0428 20.1342C16.0463 21.7214 14.8067 22.9938 13.2524 22.9999C11.7396 23.006 10.3979 21.6652 10.4014 20.1506C10.4048 18.6326 11.7465 17.2971 13.2575 17.3074C14.7963 17.3169 16.0394 18.5791 16.0428 20.1342Z" fill="black"/>
<path d="M18.0547 20.1361C18.0581 18.5801 19.2978 17.3188 20.8383 17.3067C22.3493 17.2946 23.6892 18.6276 23.6962 20.1473C23.7031 21.6792 22.3528 23.0096 20.8045 22.9975C19.2805 22.9862 18.0521 21.7068 18.0547 20.1361Z" fill="black"/>
</svg>
