<svg width="26" height="25" viewBox="0 0 26 25" fill="none" xmlns="http://www.w3.org/2000/svg">
<path d="M1.05332 0.741446C0.505852 0.931162 0.261932 1.6304 0.554637 2.19413C0.695568 2.47599 0.874444 2.61693 1.16715 2.68197C1.28098 2.70907 2.0561 2.73618 2.88543 2.73618H4.3869V9.30577C4.3869 14.813 4.40316 15.9404 4.46821 16.2494C4.70129 17.3443 5.5252 18.2008 6.63639 18.4826C7.11339 18.6019 20.0304 18.6073 20.5019 18.4826C21.2987 18.2766 22.1335 17.5991 22.475 16.8836C22.5671 16.6884 23.223 14.6016 23.9331 12.2491C25.3207 7.64169 25.3424 7.56039 25.2069 6.82862C25.0118 5.78247 24.112 4.87726 23.0658 4.69296C22.8436 4.6496 20.1442 4.63334 14.5936 4.63334H6.44668V3.12645C6.44668 1.49489 6.40873 1.19135 6.16481 0.958265C5.86669 0.681822 5.80164 0.676401 3.42748 0.681822C2.03984 0.681822 1.15631 0.703502 1.05332 0.741446Z" fill="url(#paint0_linear_7989_330)"/>
<path d="M7.69812 20.6183C7.32953 20.7592 6.99888 21.014 6.74954 21.35C6.47852 21.7186 6.37553 22.1089 6.40263 22.6509C6.41889 23.0195 6.45683 23.1442 6.60319 23.4315C7.39457 24.9058 9.48687 24.8679 10.1915 23.3719C10.674 22.3311 10.2295 21.1386 9.17791 20.667C8.79847 20.499 8.09381 20.4719 7.69812 20.6183Z" fill="url(#paint1_linear_7989_330)"/>
<path d="M19.6877 20.5911C18.6469 20.9272 18.0724 21.9625 18.338 23.0087C18.7879 24.7974 21.2542 25.0576 22.0672 23.3989C22.2353 23.0629 22.2461 22.9978 22.2461 22.4937C22.2461 21.9896 22.2353 21.93 22.0727 21.6265C21.8667 21.2308 21.5306 20.9001 21.1349 20.6996C20.891 20.5803 20.7501 20.5478 20.3761 20.5315C20.0888 20.5207 19.8286 20.5424 19.6877 20.5911Z" fill="url(#paint2_linear_7989_330)"/>
<defs>
<linearGradient id="paint0_linear_7989_330" x1="12.8452" y1="18.5741" x2="12.8452" y2="0.680773" gradientUnits="userSpaceOnUse">
<stop stop-color="#FF295D"/>
<stop offset="0.485577" stop-color="#E31B95"/>
<stop offset="1" stop-color="#C817AE"/>
</linearGradient>
<linearGradient id="paint1_linear_7989_330" x1="8.39217" y1="24.5159" x2="8.39217" y2="20.523" gradientUnits="userSpaceOnUse">
<stop stop-color="#FF295D"/>
<stop offset="0.485577" stop-color="#E31B95"/>
<stop offset="1" stop-color="#C817AE"/>
</linearGradient>
<linearGradient id="paint2_linear_7989_330" x1="20.2598" y1="24.5081" x2="20.2598" y2="20.5288" gradientUnits="userSpaceOnUse">
<stop stop-color="#FF295D"/>
<stop offset="0.485577" stop-color="#E31B95"/>
<stop offset="1" stop-color="#C817AE"/>
</linearGradient>
</defs>
</svg>
