<svg width="25" height="21" viewBox="0 0 25 21" fill="none" xmlns="http://www.w3.org/2000/svg">
<path d="M12.3589 20.2584C11.0649 20.2843 9.74504 20.2196 8.45102 19.9349C7.88166 19.8055 7.33817 19.6244 6.83351 19.3526C5.33245 18.5503 4.87955 17.0105 5.72066 15.5353C6.23826 14.6295 7.01467 13.9954 7.92048 13.5166C9.22743 12.8179 10.625 12.4944 12.1001 12.4555C13.6012 12.4167 15.0634 12.6496 16.4351 13.2708C17.5479 13.7754 18.5314 14.4613 19.1396 15.5612C19.6313 16.467 19.7478 17.3987 19.2043 18.3304C18.842 18.9774 18.2208 19.3267 17.5609 19.5855C16.7457 19.9091 15.8916 20.0514 15.0246 20.1549C14.1576 20.2455 13.2648 20.2714 12.3589 20.2584Z" fill="black"/>
<path d="M12.4368 0.886963C15.0636 0.886963 17.1858 3.00915 17.1858 5.62305C17.1858 8.23696 15.0507 10.398 12.4497 10.385C9.65465 10.3591 7.66187 8.10756 7.68775 5.59717C7.70069 2.99621 9.82287 0.886963 12.4368 0.886963Z" fill="black"/>
<path d="M18.6992 9.49197C18.3369 9.50491 17.9745 9.42727 17.6252 9.33669C17.4699 9.28493 17.4181 9.23316 17.5216 9.07788C18.2075 8.10737 18.5439 7.0204 18.5698 5.84285C18.6086 4.61354 18.311 3.46186 17.6769 2.41371C17.5087 2.14197 17.5216 2.11609 17.8193 2.05139C20.0191 1.53378 22.1671 3.0219 22.4518 5.27348C22.7494 7.49919 20.9766 9.49197 18.6992 9.49197Z" fill="black"/>
<path d="M6.18627 9.49201C4.19349 9.49201 2.52421 7.95214 2.38187 6.02406C2.23953 4.0054 3.66295 2.24554 5.64279 1.9738C6.14745 1.90909 6.62624 1.94792 7.11796 2.06438C7.29912 2.1032 7.325 2.18084 7.22148 2.33612C6.53566 3.42309 6.23803 4.61358 6.28979 5.89466C6.32861 7.02045 6.678 8.05566 7.29912 9.01323C7.46735 9.27203 7.46735 9.28497 7.16972 9.36261C6.83328 9.45319 6.49684 9.50495 6.18627 9.49201Z" fill="black"/>
<path d="M18.7384 10.8376C20.3171 10.8765 21.8053 11.2259 23.0734 12.2352C23.6428 12.6881 24.0957 13.2445 24.2509 13.9821C24.458 14.9655 24.1086 15.7678 23.2416 16.2725C22.5946 16.6607 21.87 16.8289 21.1324 16.9454C20.9641 16.9713 20.9512 16.8807 20.9383 16.7513C20.8477 15.7678 20.4854 14.8879 19.8642 14.1115C18.9067 12.921 17.6644 12.1705 16.241 11.6658C16.1116 11.627 15.9822 11.5882 15.8657 11.5364C15.814 11.5235 15.7363 11.5235 15.7363 11.4458C15.7363 11.3811 15.814 11.3682 15.8528 11.3553C16.3704 11.1482 16.9009 11.0059 17.4444 10.9153C17.8973 10.8765 18.3114 10.8376 18.7384 10.8376Z" fill="black"/>
<path d="M9.16199 11.4716C8.90319 11.5622 8.68321 11.6398 8.46322 11.7174C7.03981 12.248 5.78462 13.0373 4.86587 14.2666C4.30944 15.0042 3.973 15.8324 3.92124 16.7511C3.92124 16.8547 3.9083 16.9711 3.75301 16.9452C2.91191 16.8158 2.08374 16.6347 1.38497 16.1171C0.530921 15.483 0.310938 14.4607 0.789724 13.4514C1.19087 12.6362 1.86375 12.0798 2.66604 11.6657C3.973 10.9798 5.37053 10.7469 6.84571 10.8763C7.51859 10.941 8.17854 11.0834 8.81261 11.3033C8.91613 11.3422 9.03259 11.3681 9.16199 11.4716Z" fill="black"/>
</svg>
