<svg width="16" height="16" viewBox="0 0 16 16" fill="none" xmlns="http://www.w3.org/2000/svg">
<path d="M2.32443 8.08769C2.32443 9.22384 2.31915 10.36 2.32443 11.4961C2.32972 12.8014 3.18579 13.668 4.49104 13.668C6.7792 13.6733 9.07263 13.6733 11.3608 13.668C12.6502 13.668 13.5115 12.8014 13.5168 11.512C13.5221 9.97952 13.5168 8.44703 13.5168 6.91455C13.5168 6.76659 13.5221 6.61334 13.5591 6.47066C13.6437 6.14831 13.9132 5.94222 14.2619 5.94222C14.6107 5.94222 14.8855 6.14303 14.9648 6.47066C14.9965 6.59749 15.007 6.7296 15.007 6.86171C15.0123 8.40476 15.0123 9.94252 15.007 11.4856C14.9965 13.2506 13.9343 14.6298 12.275 15.0526C11.9685 15.1318 11.6461 15.1582 11.3344 15.1582C9.06207 15.1635 6.78977 15.1688 4.51747 15.1582C2.71548 15.153 1.31511 14.0538 0.924062 12.3469C0.860649 12.0774 0.834227 11.7868 0.834227 11.512C0.828943 9.22384 0.823658 6.93041 0.834227 4.64225C0.844796 2.85084 1.95452 1.45575 3.66667 1.07527C3.94146 1.01714 4.22682 0.990721 4.5069 0.990721C6.04995 0.980152 7.58771 0.985437 9.13076 0.990721C9.26287 0.990721 9.39498 1.00129 9.52181 1.033C9.84944 1.11226 10.0503 1.38177 10.0503 1.73054C10.0503 2.07931 9.84944 2.34882 9.52709 2.43337C9.37913 2.47036 9.23117 2.47564 9.0832 2.47564C7.5243 2.47564 5.9654 2.47036 4.40649 2.47564C3.37603 2.48621 2.56223 3.15205 2.36142 4.12967C2.32443 4.30934 2.32443 4.49957 2.32443 4.67924C2.31915 5.81539 2.32443 6.95154 2.32443 8.08769Z" fill="#FF9D00"/>
<path d="M14.989 2.68138C14.9784 3.13584 14.8305 3.53746 14.5028 3.86509C13.261 5.11222 11.9822 6.32763 10.7879 7.61703C10.0164 8.44668 9.15499 9.03854 8.05055 9.28162C7.8286 9.32918 7.61722 9.42959 7.39528 9.47715C6.85098 9.60397 6.35953 9.13894 6.51278 8.60522C6.71887 7.88654 6.97781 7.18371 7.21032 6.4756C7.24732 6.36462 7.32658 6.28007 7.41113 6.20081C8.97004 4.63662 10.5237 3.06715 12.0984 1.51353C12.8224 0.789563 13.9057 0.831838 14.5662 1.56637C14.8463 1.88344 14.9784 2.25863 14.989 2.68138Z" fill="#FF9D00"/>
</svg>
