<svg width="19" height="19" viewBox="0 0 19 19" fill="none" xmlns="http://www.w3.org/2000/svg">
<path d="M9.49648 18.3272C7.69167 18.3272 5.89327 18.334 4.08847 18.3272C2.75087 18.3204 1.75886 17.686 1.17646 16.383C0.978063 15.9328 0.920463 15.4484 0.914062 14.9573C0.914062 12.5083 0.914062 10.0661 0.914062 7.62397C0.914062 6.35514 1.40046 5.37964 2.39246 4.66336C4.15247 3.40135 5.89327 2.11205 7.64687 0.836395C8.90127 -0.0777104 10.1493 -0.0504237 11.3973 0.863682C13.1317 2.14616 14.8725 3.41499 16.6261 4.677C17.5861 5.37281 18.0725 6.32103 18.0789 7.54893C18.0853 10.0252 18.0917 12.5083 18.0789 14.9846C18.0661 16.5604 17.2149 17.7746 15.8581 18.1976C15.5317 18.2999 15.1861 18.3272 14.8469 18.3272C13.0613 18.334 11.2757 18.334 9.49648 18.3272ZM9.50928 15.0391C10.1813 15.0391 10.8533 15.046 11.5189 15.0391C11.8325 15.0391 12.0309 14.8754 12.0053 14.6367C11.9797 14.3229 11.7749 14.241 11.5061 14.241C10.1621 14.241 8.82447 14.241 7.48047 14.241C7.21807 14.241 7.00687 14.3229 6.97487 14.6298C6.94927 14.8822 7.15407 15.0391 7.48687 15.0391C8.16527 15.046 8.83727 15.046 9.50928 15.0391Z" fill="#ADADAD"/>
</svg>
