<svg width="16" height="17" viewBox="0 0 16 17" fill="none" xmlns="http://www.w3.org/2000/svg">
<path d="M8.94418 0.293699C8.56273 0.424193 8.20806 0.721988 8.03406 1.05993C7.98387 1.15697 7.93368 1.23727 7.92365 1.23727C7.91361 1.23727 7.8768 1.18039 7.84 1.11347C7.65262 0.762139 7.17749 0.434232 6.76259 0.367311C6.13019 0.263586 5.4108 0.641684 5.14312 1.2172C4.93233 1.66556 4.94906 2.09719 5.19331 2.58236L5.34054 2.87681H5.14981C4.14936 2.87681 3.4099 3.81034 3.6575 4.76061C3.83484 5.44319 4.40366 5.85475 5.16654 5.85475C5.287 5.85475 5.38069 5.86479 5.374 5.87817C5.14981 6.31649 5.10297 6.51391 5.1197 6.90204C5.12974 7.15634 5.14981 7.24668 5.22677 7.40394C5.6216 8.21702 6.70905 8.50812 7.4184 7.99619C7.58236 7.87573 7.57566 7.81216 7.5054 8.63193C7.31802 10.9105 7.36152 13.3632 7.64258 15.8425C7.66935 16.0835 7.71954 16.224 7.78981 16.2608C7.89688 16.3177 8.08425 16.301 8.15787 16.2273C8.24152 16.1437 8.24486 16.0065 8.1746 15.4477C7.98387 13.8383 7.91026 11.64 7.99057 9.95359C8.02403 9.26766 8.15117 7.57794 8.1746 7.50098C8.18463 7.47756 8.27832 7.54782 8.40212 7.67162C8.64973 7.91923 8.89399 8.04972 9.20851 8.10326C9.85094 8.21033 10.5603 7.83223 10.8447 7.23664C11.0455 6.80836 11.002 6.19604 10.7343 5.77779C10.6807 5.69079 10.6339 5.61049 10.6339 5.6038C10.6339 5.59376 10.7276 5.58707 10.8447 5.58707C11.2763 5.58372 11.621 5.44319 11.9255 5.1387C12.1664 4.89445 12.2935 4.64684 12.3471 4.30221C12.4474 3.65977 12.1496 3.06419 11.5942 2.79316C11.3299 2.66601 10.9451 2.58905 10.7142 2.62251L10.5703 2.63924L10.654 2.49871C10.8715 2.12061 10.9384 1.56518 10.8079 1.19712C10.6506 0.752102 10.296 0.420848 9.83421 0.287008C9.58995 0.216742 9.15832 0.220087 8.94418 0.293699ZM8.20136 3.49247C8.41885 3.55605 8.546 3.65977 8.65977 3.85719C8.95421 4.36912 8.57612 5.01825 7.99057 5.01825C7.40502 5.01825 7.02692 4.36912 7.32137 3.85719C7.43179 3.66312 7.56228 3.55939 7.76639 3.49247C7.95041 3.43559 8.01733 3.43559 8.20136 3.49247Z" fill="url(#paint0_linear_8004_337)"/>
<path d="M2.37532 6.4676C2.32513 6.52114 2.28497 6.65164 2.22809 6.95278C2.18794 7.17696 2.1411 7.36099 2.12771 7.36099C2.11098 7.36099 1.91691 7.24388 1.69273 7.10334C1.22764 6.8089 1.11053 6.78213 0.976689 6.93939C0.933191 6.98958 0.896386 7.06654 0.896386 7.11004C0.896386 7.15353 0.993419 7.4346 1.11053 7.73574C1.22764 8.03353 1.31798 8.28783 1.31129 8.29452C1.3046 8.30121 1.11053 8.2711 0.87631 8.2276C0.494866 8.16068 0.444676 8.15733 0.364372 8.20083C0.247262 8.26441 0.180342 8.41163 0.217148 8.51536C0.253954 8.62577 1.94368 10.6836 2.0976 10.804C2.60284 11.2022 3.24862 11.2691 3.88102 10.9947C3.95463 10.9613 4.78109 11.761 5.15584 12.2294C5.9455 13.2098 6.37713 14.2102 6.56451 15.4951C6.59462 15.6925 6.61804 15.9134 6.61804 15.9903C6.61804 16.181 6.72846 16.2948 6.91584 16.2948C7.08648 16.2948 7.18686 16.181 7.18686 15.9803C7.18686 15.6156 7.04633 14.8159 6.88572 14.2805C6.52101 13.0559 5.94215 12.1324 4.86139 11.0583L4.38961 10.5899L4.49668 10.4326C4.81789 9.96083 4.8547 9.26486 4.59037 8.73954C4.51676 8.59231 4.18885 8.16403 3.6401 7.49483C3.17836 6.9327 2.77684 6.45422 2.74672 6.4308C2.65303 6.36388 2.45562 6.38061 2.37532 6.4676Z" fill="url(#paint1_linear_8004_337)"/>
<path d="M12.7465 6.87523C12.6495 6.902 12.5224 6.94884 12.4655 6.97896C12.2881 7.0693 12.0104 7.35706 11.8532 7.60801C11.5052 8.16679 11.4115 8.52146 11.4717 9.00998C11.5052 9.27431 11.6558 9.72268 11.7528 9.84982C11.7996 9.9134 11.7695 9.9502 11.2408 10.4856C10.933 10.8001 10.672 11.0611 10.6586 11.0678C10.6419 11.0745 10.6319 11.051 10.6319 11.0142C10.6319 10.9774 10.5783 10.8469 10.5181 10.7198C10.4244 10.5324 10.3107 10.3986 9.92253 10.0138C9.4039 9.49849 9.33698 9.46169 9.1128 9.53865C8.90534 9.61226 8.87188 9.70595 8.80831 10.3383C8.71462 11.2585 8.76816 11.6199 9.05257 11.9946C9.20314 12.192 9.35705 12.3024 9.54778 12.3493L9.68831 12.3861L9.51097 12.7274C9.05591 13.5873 8.815 14.3234 8.64101 15.4142C8.54732 15.9864 8.54063 16.1202 8.6042 16.2005C8.70124 16.331 8.93546 16.3444 9.04253 16.2273C9.07599 16.1905 9.12953 15.9596 9.1931 15.5882C9.24664 15.267 9.30017 14.9558 9.31356 14.8989L9.33363 14.7885L9.43067 14.8554C9.7318 15.0729 10.2203 15.0763 10.6553 14.8655C10.9063 14.7417 11.02 14.6379 11.4684 14.116C11.8398 13.6843 11.8699 13.6408 11.8699 13.5137C11.8699 13.3631 11.7996 13.2192 11.6892 13.1456C11.6022 13.0888 10.2404 13.0586 10.0463 13.1122L9.92587 13.1456L10.0497 12.9215C10.4278 12.2322 10.8293 11.7236 11.5955 10.9607L12.161 10.3986L12.3517 10.5525C12.7131 10.8436 12.9942 10.9406 13.4927 10.9406C14.2991 10.9406 15.0653 10.5659 15.3196 10.0472C15.3865 9.91674 15.3999 9.83309 15.3999 9.59887C15.3999 9.33789 15.3899 9.29773 15.2995 9.14716C15.2226 9.02336 15.1523 8.95979 15.0185 8.88952C14.9181 8.83933 14.7943 8.79918 14.7408 8.79918C14.6471 8.79918 14.6471 8.79583 14.6471 8.60177C14.6471 8.21363 14.366 7.87903 14.0046 7.83888C13.8608 7.82215 13.8574 7.8188 13.8708 7.70839C13.9076 7.41394 13.7135 7.06261 13.4392 6.92542C13.2652 6.83508 12.9674 6.81166 12.7465 6.87523Z" fill="url(#paint2_linear_8004_337)"/>
<defs>
<linearGradient id="paint0_linear_8004_337" x1="7.98785" y1="16.2948" x2="7.98785" y2="0.236334" gradientUnits="userSpaceOnUse">
<stop stop-color="#FF295D"/>
<stop offset="0.485577" stop-color="#E31B95"/>
<stop offset="1" stop-color="#C817AE"/>
</linearGradient>
<linearGradient id="paint1_linear_8004_337" x1="3.69695" y1="16.2948" x2="3.69695" y2="6.38975" gradientUnits="userSpaceOnUse">
<stop stop-color="#FF295D"/>
<stop offset="0.485577" stop-color="#E31B95"/>
<stop offset="1" stop-color="#C817AE"/>
</linearGradient>
<linearGradient id="paint2_linear_8004_337" x1="11.9812" y1="16.3074" x2="11.9812" y2="6.83934" gradientUnits="userSpaceOnUse">
<stop stop-color="#FF295D"/>
<stop offset="0.485577" stop-color="#E31B95"/>
<stop offset="1" stop-color="#C817AE"/>
</linearGradient>
</defs>
</svg>
