<svg width="13" height="16" viewBox="0 0 13 16" fill="none" xmlns="http://www.w3.org/2000/svg">
<path d="M6.78711 5.4696C8.29874 5.4696 9.81036 5.4696 11.322 5.4696C11.9014 5.4696 12.1597 5.72784 12.1093 6.3073C12.0022 7.54179 11.87 8.76999 11.7503 9.99818C11.6369 11.2201 11.5235 12.442 11.4102 13.6639C11.385 13.9032 11.3724 14.1489 11.3283 14.3819C11.1708 15.2637 10.4339 15.8998 9.53953 15.9061C7.71298 15.9124 5.88644 15.9124 4.05989 15.9061C3.10253 15.8998 2.34042 15.2007 2.23964 14.2433C2.12627 13.1789 2.03179 12.1145 1.93102 11.05C1.78615 9.5258 1.63499 8.00158 1.49013 6.48365C1.48383 6.40177 1.47753 6.3136 1.47753 6.23172C1.45864 5.75303 1.71687 5.4759 2.18925 5.4759C3.71977 5.4696 5.2503 5.4696 6.78711 5.4696ZM5.84865 13.2167C5.86124 12.8388 5.78566 12.4609 5.76677 12.0893C5.69748 10.9178 5.6156 9.74624 5.54632 8.57473C5.52743 8.27871 5.53373 7.98898 5.50223 7.69295C5.46444 7.32135 5.16212 7.06941 4.8472 7.1072C4.51338 7.15129 4.28663 7.45361 4.31183 7.80632C4.39371 9.02192 4.46929 10.2312 4.54487 11.4468C4.58896 12.1774 4.62675 12.9144 4.67714 13.645C4.70233 14.0103 4.98576 14.2874 5.30068 14.2685C5.6282 14.2496 5.84235 14.004 5.84865 13.6198C5.84865 13.4938 5.84865 13.3552 5.84865 13.2167ZM7.75078 13.1852C7.74448 13.1852 7.74448 13.1852 7.73818 13.1852C7.73818 13.3238 7.73818 13.456 7.73818 13.5946C7.73818 14.004 7.93973 14.2559 8.27984 14.2748C8.60736 14.2937 8.88449 14.0166 8.90969 13.6198C8.98527 12.4483 9.04825 11.2768 9.11754 10.1053C9.16163 9.36204 9.21201 8.61882 9.2687 7.87561C9.30019 7.46621 9.10494 7.15759 8.74593 7.1072C8.40581 7.06311 8.10979 7.34024 8.07829 7.74964C7.96492 9.56359 7.85785 11.3712 7.75078 13.1852Z" fill="#ADADAD"/>
<path d="M6.78646 4.88474C5.05439 4.88474 3.32232 4.88474 1.59025 4.88474C0.991898 4.88474 0.784049 4.67059 0.784049 4.06594C0.784049 3.8266 0.777751 3.58096 0.784049 3.34162C0.790348 2.88184 1.02339 2.6425 1.48318 2.6362C2.28938 2.6299 3.10187 2.6236 3.90807 2.6362C4.16631 2.6425 4.25449 2.56692 4.25449 2.30238C4.26709 1.4143 4.95362 0.752966 5.84799 0.746667C6.47784 0.740369 7.10768 0.740369 7.73753 0.746667C8.6319 0.752966 9.31214 1.4143 9.32473 2.30868C9.32473 2.57951 9.42551 2.6425 9.67744 2.6425C10.4522 2.6299 11.2332 2.6362 12.0079 2.6362C12.5747 2.6362 12.7952 2.85664 12.7952 3.41091C12.7952 3.66284 12.8015 3.91478 12.7952 4.16672C12.7889 4.6454 12.5558 4.88474 12.0772 4.88474C10.3136 4.89104 8.55002 4.88474 6.78646 4.88474ZM6.79276 2.6362C7.12028 2.6362 7.4415 2.6425 7.76902 2.6362C8.03355 2.6299 8.10283 2.51023 7.99576 2.27089C7.91388 2.08823 7.75642 2.05044 7.58006 2.05674C7.10768 2.05674 6.6353 2.05674 6.16921 2.05674C6.06214 2.05674 5.95507 2.05044 5.85429 2.06934C5.64644 2.11343 5.55827 2.25199 5.56456 2.45354C5.57086 2.69288 5.75352 2.6299 5.88578 2.6362C6.18181 2.6425 6.49043 2.6362 6.79276 2.6362Z" fill="#ADADAD"/>
</svg>
