<svg width="26" height="15" viewBox="0 0 26 15" fill="none" xmlns="http://www.w3.org/2000/svg">
<path d="M4.69828 0.0689337C3.82179 0.280668 3.14227 1.03897 3.00932 1.945C2.9847 2.13212 2.96008 2.43741 2.96008 2.6196V2.94951L1.71429 2.96428C0.335556 2.97906 0.301088 2.9889 0.104125 3.31389C-0.0485211 3.5601 -0.0288248 3.98849 0.133669 4.18545C0.374948 4.47105 0.429113 4.4809 1.75369 4.4809H2.96008V5.44109V6.40128H2.63017C2.08852 6.40128 1.77831 6.6721 1.77831 7.13989C1.77831 7.61753 2.05898 7.8785 2.62032 7.91789L2.96008 7.94251V8.67128V9.40004L1.8374 9.41481C0.596531 9.42958 0.542367 9.44435 0.350328 9.76442C0.197682 10.0106 0.217378 10.439 0.379873 10.636C0.621152 10.9166 0.685165 10.9314 1.87679 10.9314H2.96008V11.4829C2.96008 11.7882 2.9847 12.192 3.00932 12.3791C3.16689 13.4525 4.10739 14.2749 5.18084 14.2798H5.45658V13.8465C5.45658 12.6105 6.29367 11.4681 7.49515 11.0742C7.9974 10.9117 8.79018 10.9117 9.26289 11.0742C10.1344 11.3795 10.8287 12.059 11.1439 12.9306C11.2177 13.1374 11.2571 13.3738 11.2719 13.7529L11.2916 14.2798H14.0245C16.6096 14.2798 16.7573 14.2749 16.7228 14.1912C16.7031 14.1468 16.6785 13.9203 16.6638 13.6889C16.6096 12.8518 16.9247 12.0738 17.5599 11.4435C18.7171 10.2962 20.475 10.311 21.6223 11.4731C22.2476 12.1033 22.5431 12.8567 22.4938 13.6889C22.4791 13.9203 22.4545 14.1468 22.4348 14.1912C22.4003 14.2699 22.4397 14.2798 22.8582 14.2798C23.1143 14.2798 23.4343 14.2502 23.5673 14.2108C24.3158 14.0139 24.9017 13.4575 25.1282 12.7386C25.207 12.4776 25.2169 12.2461 25.2169 10.4883C25.2169 8.73036 25.207 8.49893 25.1282 8.23796C25.0199 7.90312 24.8574 7.6323 24.6013 7.37132C24.3404 7.10542 24.1336 6.98724 23.395 6.67703L22.7401 6.40128H19.8595C16.9986 6.40128 16.9789 6.40128 16.8066 6.29295C16.7081 6.23386 16.5997 6.10584 16.5456 5.98766C16.4619 5.80055 16.452 5.60851 16.452 2.89042V-3.25032e-06L10.7056 0.00492081C6.2789 0.00984488 4.89524 0.0246171 4.69828 0.0689337ZM6.45617 3.09231C6.72699 3.22526 6.86487 3.47146 6.84025 3.78168C6.82547 3.96387 6.78608 4.0722 6.69745 4.16576C6.45124 4.43166 6.4414 4.43166 4.65888 4.43166H3.00932V3.71767V3.00368H4.64904C6.10656 3.00368 6.30352 3.01352 6.45617 3.09231ZM5.57476 6.52438C5.9096 6.70165 6.02285 7.20883 5.80127 7.53874C5.59938 7.83911 5.52552 7.85388 4.20587 7.86865L3.00932 7.88342V7.16451V6.45052H4.21572C5.2153 6.45052 5.45166 6.46529 5.57476 6.52438ZM5.32363 9.54283C5.59446 9.67578 5.73233 9.92199 5.70771 10.2322C5.69294 10.4144 5.65355 10.5227 5.56491 10.6163C5.32856 10.8723 5.25962 10.8822 4.09262 10.8822H3.00932V10.1682V9.4542H4.08277C5.00357 9.4542 5.17591 9.46405 5.32363 9.54283Z" fill="black" fill-opacity="0.2"/>
</svg>
