<svg width="14" height="14" viewBox="0 0 14 14" fill="none" xmlns="http://www.w3.org/2000/svg">
<path d="M8.04184 7.67448C8.03398 7.80933 8.14123 7.86642 8.23674 7.77091C8.68185 7.3258 9.12696 6.88069 9.57207 6.43955C9.9059 6.10969 10.3391 6.08982 10.6491 6.39186C10.9392 6.678 10.9392 7.13503 10.6213 7.45694C9.70719 8.38293 8.78518 9.30892 7.85522 10.223C7.52139 10.5528 7.10409 10.5568 6.77424 10.2349C5.83633 9.30892 4.90637 8.37896 3.98038 7.44105C3.73001 7.19067 3.69026 6.86876 3.82936 6.58262C3.96051 6.31238 4.24665 6.16136 4.56856 6.1852C4.75932 6.2011 4.90239 6.29648 5.03354 6.42763C5.4866 6.88069 5.93966 7.33772 6.39669 7.79078C6.4404 7.83449 6.48015 7.9259 6.54771 7.89013C6.6113 7.85834 6.5795 7.77091 6.5795 7.70732C6.5795 5.57715 6.5795 3.44301 6.58348 1.31284C6.58348 0.827991 6.88154 0.529926 7.34255 0.541849C7.72407 0.549797 8.02213 0.835939 8.03803 1.21746C8.04598 1.46784 8.04201 1.72218 8.04201 1.97256C8.04201 3.87222 8.04201 5.77189 8.04201 7.67155C8.04195 7.67253 8.04189 7.6735 8.04184 7.67448Z" fill="#ADADAD"/>
<path d="M7.29621 13.2792C6.1119 13.2792 4.92759 13.2832 3.73931 13.2792C2.1854 13.2752 0.945448 12.0273 0.9375 10.4734C0.9375 10.235 0.9375 9.99651 0.9375 9.75805C0.941474 9.32487 1.23159 9.01091 1.63696 9.00296C2.05425 8.99501 2.37616 9.305 2.39205 9.73818C2.4 9.96869 2.39205 10.2032 2.39603 10.4337C2.41193 11.2285 2.98818 11.8207 3.78302 11.8246C6.13177 11.8326 8.48449 11.8326 10.8332 11.8246C11.636 11.8207 12.2163 11.2285 12.2282 10.4217C12.2322 10.1912 12.2242 9.95676 12.2322 9.72626C12.2481 9.36858 12.4825 9.09039 12.8203 9.01885C13.1422 8.95129 13.4642 9.10629 13.6152 9.40832C13.639 9.45601 13.6668 9.50768 13.6708 9.55537C13.7463 10.5648 13.7145 11.5504 12.9674 12.3532C12.4229 12.9334 11.7592 13.2752 10.9525 13.2792C9.73239 13.2871 8.51231 13.2792 7.29621 13.2792Z" fill="#ADADAD"/>
</svg>
