<svg width="18" height="24" viewBox="0 0 18 24" fill="none" xmlns="http://www.w3.org/2000/svg">
<path d="M3.86713 0.115649C3.6051 0.201488 3.26626 0.454488 3.07199 0.707487C2.89128 0.942415 2.74219 1.41227 2.74219 1.73304C2.74219 2.06736 2.89128 2.50559 3.09006 2.75859C3.18494 2.87605 3.65931 3.28718 4.14272 3.67571L5.0237 4.37598H8.93163H12.8396L13.7206 3.67571C14.204 3.28718 14.6783 2.87605 14.7732 2.75859C15.1256 2.31132 15.2114 1.65172 14.9855 1.05536C14.859 0.730076 14.4931 0.341541 14.1497 0.174381L13.9239 0.0614352L8.9994 0.0523996C4.65324 0.0433636 4.05236 0.0523996 3.86713 0.115649Z" fill="url(#paint0_linear_7904_1949)"/>
<path d="M4.62062 6.0926C2.36169 8.53223 0.726233 12.029 0.324145 15.2729C0.238306 15.9731 0.238306 17.3104 0.324145 17.9158C0.71268 20.6401 2.18098 22.4698 4.44442 23.0481C4.84199 23.1475 4.84199 23.1475 9.06617 23.1475H13.2904L13.7421 23.021C15.8475 22.4382 17.1893 20.6717 17.5371 18.0333C17.6275 17.3601 17.623 15.9867 17.5371 15.2729C17.2706 13.1224 16.4529 10.8273 15.2104 8.74005C14.6412 7.78227 14.1126 7.06845 13.3446 6.21458L12.9877 5.82153H8.93064H4.87361L4.62062 6.0926ZM9.33273 9.83789C9.5541 9.99601 9.61735 10.1677 9.64446 10.6872L9.66705 11.1526H10.2273C10.8552 11.1526 10.9727 11.1887 11.167 11.4462C11.429 11.7851 11.3115 12.2549 10.9185 12.4492C10.7287 12.5486 10.67 12.5531 9.56314 12.5531C8.53307 12.5531 8.39302 12.5622 8.25748 12.6344C7.85991 12.8468 7.83732 13.4522 8.21682 13.6826C8.33428 13.7549 8.44723 13.7729 8.77252 13.7729C9.76644 13.7775 10.2995 13.9582 10.7513 14.4506C11.3522 15.0967 11.4787 15.9279 11.0947 16.7095C10.8507 17.202 10.2905 17.6628 9.8071 17.7667L9.66705 17.7983L9.64446 18.2953C9.62187 18.7245 9.6038 18.8103 9.50441 18.9639C9.2243 19.3841 8.63698 19.3841 8.35687 18.9639C8.25748 18.8148 8.23941 18.7245 8.22134 18.3134L8.19423 17.839H7.62046C7.10091 17.839 7.03314 17.83 6.89761 17.7351C6.55425 17.5047 6.45938 17.1839 6.63557 16.8451C6.71238 16.696 6.7937 16.6147 6.94279 16.5379C7.13254 16.443 7.19127 16.4385 8.29814 16.4385C9.32821 16.4385 9.46826 16.4294 9.6038 16.3571C10.0014 16.1448 10.024 15.5394 9.64446 15.309C9.52699 15.2367 9.41405 15.2186 9.08876 15.2186C8.86739 15.2186 8.52855 15.1961 8.34332 15.1735C7.21838 15.0289 6.39161 13.9672 6.57232 12.892C6.68527 12.2098 7.10091 11.6495 7.71986 11.3559C7.90057 11.27 8.08128 11.1978 8.12646 11.1978C8.19875 11.1978 8.20778 11.1526 8.20778 10.8454C8.2123 10.1993 8.30718 9.95987 8.61439 9.78819C8.81769 9.67525 9.13394 9.69784 9.33273 9.83789Z" fill="url(#paint1_linear_7904_1949)"/>
<defs>
<linearGradient id="paint0_linear_7904_1949" x1="8.92637" y1="4.37598" x2="8.92637" y2="0.0494318" gradientUnits="userSpaceOnUse">
<stop stop-color="#FF295D"/>
<stop offset="0.485577" stop-color="#E31B95"/>
<stop offset="1" stop-color="#C817AE"/>
</linearGradient>
<linearGradient id="paint1_linear_7904_1949" x1="8.93149" y1="23.1475" x2="8.93149" y2="5.82153" gradientUnits="userSpaceOnUse">
<stop stop-color="#FF295D"/>
<stop offset="0.485577" stop-color="#E31B95"/>
<stop offset="1" stop-color="#C817AE"/>
</linearGradient>
</defs>
</svg>
