<svg width="15" height="15" viewBox="0 0 15 15" fill="none" xmlns="http://www.w3.org/2000/svg">
<path d="M2.18817 7.33955C2.18817 8.46715 2.18293 9.59475 2.18817 10.7224C2.19342 12.0178 3.04305 12.8779 4.33849 12.8779C6.60942 12.8832 8.8856 12.8832 11.1565 12.8779C12.4362 12.8779 13.2911 12.0178 13.2964 10.7381C13.3016 9.21714 13.2964 7.69619 13.2964 6.17524C13.2964 6.02838 13.3016 5.87629 13.3383 5.73468C13.4222 5.41476 13.6897 5.21022 14.0359 5.21022C14.382 5.21022 14.6547 5.40952 14.7334 5.73468C14.7649 5.86056 14.7754 5.99167 14.7754 6.12279C14.7806 7.65423 14.7806 9.18042 14.7754 10.7119C14.7649 12.4636 13.7107 13.8324 12.0639 14.252C11.7597 14.3307 11.4398 14.3569 11.1303 14.3569C8.87511 14.3621 6.61991 14.3674 4.36471 14.3569C2.57628 14.3517 1.18644 13.2608 0.79834 11.5667C0.735404 11.2993 0.709181 11.0108 0.709181 10.7381C0.703936 8.46715 0.698692 6.19097 0.709181 3.92003C0.71967 2.14209 1.82105 0.757503 3.52032 0.379888C3.79304 0.322196 4.07625 0.295973 4.35422 0.295973C5.88566 0.285484 7.41186 0.290728 8.9433 0.295973C9.07441 0.295973 9.20553 0.306462 9.3314 0.33793C9.65657 0.4166 9.85587 0.684078 9.85587 1.03023C9.85587 1.37637 9.65657 1.64385 9.33665 1.72776C9.18979 1.76448 9.04294 1.76972 8.89609 1.76972C7.34892 1.76972 5.80174 1.76448 4.25457 1.76972C3.23186 1.78021 2.42418 2.44104 2.22489 3.4113C2.18817 3.58962 2.18817 3.77843 2.18817 3.95674C2.18293 5.08435 2.18817 6.21195 2.18817 7.33955Z" fill="#ADADAD"/>
<path d="M14.757 1.9741C14.7465 2.42514 14.5997 2.82373 14.2745 3.1489C13.042 4.38664 11.7728 5.59291 10.5875 6.87261C9.82181 7.69602 8.96693 8.28342 7.87079 8.52468C7.65052 8.57188 7.44073 8.67153 7.22046 8.71873C6.68026 8.8446 6.1925 8.38307 6.3446 7.85336C6.54914 7.14009 6.80613 6.44255 7.03689 5.73976C7.07361 5.62962 7.15228 5.54571 7.23619 5.46704C8.78337 3.91462 10.3253 2.35696 11.8882 0.815027C12.6067 0.0965091 13.6819 0.138466 14.3375 0.867474C14.6154 1.18215 14.7465 1.55452 14.757 1.9741Z" fill="#ADADAD"/>
</svg>
