<svg width="15" height="13" viewBox="0 0 15 13" fill="none" xmlns="http://www.w3.org/2000/svg">
<path d="M8.17955 0.261072C7.27837 0.533652 3.39549 1.78808 3.29814 1.83536C3.14794 1.91324 3.04781 2.01616 2.9588 2.18304L2.89483 2.3082L2.88649 4.74474L2.88092 7.18405L2.74742 7.14233C2.2106 6.98101 1.56253 7.14511 1.15644 7.5512C0.839354 7.86829 0.683594 8.24656 0.683594 8.7055C0.683594 9.17556 0.825447 9.5288 1.14253 9.84866C2.01034 10.722 3.46224 10.3716 3.86277 9.19225C3.92118 9.01424 3.92396 8.99477 3.93231 6.86697L3.94065 4.72249L5.94884 4.08554L7.95704 3.44581L7.96538 4.31918C7.96816 4.80037 7.96816 5.20089 7.9626 5.20646C7.95704 5.21202 7.87081 5.19811 7.77346 5.17308C6.80274 4.945 5.85149 5.65149 5.78474 6.64724C5.73745 7.30644 6.10739 7.94338 6.69705 8.21875C6.97519 8.34947 7.23943 8.39954 7.52313 8.37729C8.1879 8.32444 8.73306 7.90444 8.95001 7.27862L9.01398 7.09227V3.84912V0.60875L8.93888 0.49193C8.78312 0.25829 8.48829 0.166503 8.17955 0.261072Z" fill="url(#paint0_linear_6570_5814)"/>
<path d="M11.7857 4.77295C11.5048 4.82579 11.2906 5.04275 11.2294 5.32923C11.2099 5.42102 11.1988 6.11916 11.1988 7.32074C11.1988 9.07026 11.196 9.17039 11.1515 9.15092C10.9068 9.05913 10.3755 9.06191 10.1029 9.16205C9.33804 9.43463 8.88467 10.2218 9.04321 11.0034C9.14891 11.5346 9.46321 11.9435 9.93327 12.166C10.1697 12.2772 10.3672 12.3218 10.6564 12.319C11.1488 12.3162 11.5854 12.1076 11.9025 11.7237C12.0333 11.568 12.1862 11.2565 12.2252 11.0618C12.2446 10.9644 12.2558 10.333 12.2558 9.18708C12.2558 7.55716 12.2585 7.46259 12.3058 7.48206C12.5256 7.5655 12.7203 7.61279 13.0624 7.66285C13.7299 7.7602 14.1277 7.86312 14.4308 8.01331C14.6061 8.10232 14.7674 8.10232 14.8564 8.01053C14.9176 7.94934 14.9259 7.91875 14.9259 7.72126C14.9259 7.11213 14.7563 6.503 14.4976 6.18035C14.4086 6.06909 14.1527 5.87161 13.983 5.78539C13.9302 5.75757 13.716 5.67135 13.5074 5.59347C13.029 5.40989 12.8232 5.29586 12.5617 5.06221C12.2641 4.7952 12.0611 4.7201 11.7857 4.77295Z" fill="url(#paint1_linear_6570_5814)"/>
<defs>
<linearGradient id="paint0_linear_6570_5814" x1="4.84879" y1="10.3358" x2="4.84879" y2="0.224317" gradientUnits="userSpaceOnUse">
<stop stop-color="#FF295D"/>
<stop offset="0.485577" stop-color="#E31B95"/>
<stop offset="1" stop-color="#C817AE"/>
</linearGradient>
<linearGradient id="paint1_linear_6570_5814" x1="11.9688" y1="12.3191" x2="11.9688" y2="4.7571" gradientUnits="userSpaceOnUse">
<stop stop-color="#FF295D"/>
<stop offset="0.485577" stop-color="#E31B95"/>
<stop offset="1" stop-color="#C817AE"/>
</linearGradient>
</defs>
</svg>
