<svg width="15" height="14" viewBox="0 0 15 14" fill="none" xmlns="http://www.w3.org/2000/svg">
<path d="M5.88437 10.2599C5.88437 10.752 5.88984 11.2442 5.88437 11.7364C5.87343 12.4309 5.33751 12.9941 4.64301 13.0051C3.64226 13.0215 2.64152 13.0215 1.64077 13.0051C0.929863 12.9941 0.388476 12.4309 0.383008 11.7254C0.377539 10.7684 0.377539 9.81144 0.383008 8.85991C0.383008 8.03416 0.886114 7.49277 1.7064 7.47637C2.65246 7.45449 3.59851 7.45449 4.54457 7.47637C5.38126 7.49277 5.88437 8.03416 5.88437 8.87632C5.88437 9.3302 5.88437 9.79503 5.88437 10.2599Z" fill="url(#paint0_linear_6570_8744)"/>
<path d="M5.48369 0.607932C5.1173 0.575121 4.9259 0.821206 4.71262 1.02901C4.27514 1.45556 3.83219 1.87664 3.41111 2.31959C3.21424 2.52739 3.06112 2.58208 2.85878 2.3524C2.80957 2.29225 2.73301 2.24303 2.65645 2.21569C2.42677 2.13366 2.21896 2.18834 2.07678 2.39068C1.94554 2.58208 1.9346 2.78988 2.09866 2.97035C2.32287 3.21096 2.55255 3.44611 2.79316 3.66485C3.0119 3.86172 3.29627 3.82891 3.52595 3.59923C4.28608 2.8391 5.04074 2.0735 5.79539 1.31338C5.80633 1.30244 5.82821 1.30244 5.85555 1.2915C5.93211 1.41728 5.87195 1.55946 5.87195 1.68524C5.87742 2.57114 5.87742 3.45158 5.87195 4.33748C5.87195 5.15776 5.36338 5.69915 4.53763 5.71556C3.59157 5.73743 2.64004 5.73743 1.69398 5.71556C0.87917 5.69915 0.376063 5.15776 0.370595 4.33748C0.370595 3.39689 0.365126 2.46177 0.370595 1.52118C0.376063 0.72824 0.917449 0.186854 1.71586 0.181386C2.65645 0.175917 3.59157 0.181386 4.53216 0.181386C4.89855 0.181386 5.2212 0.296225 5.48369 0.607932Z" fill="#ADADAD"/>
<path d="M11.1366 1.26965C12.0827 1.26965 13.0288 1.26965 13.9748 1.26965C14.2318 1.26965 14.4451 1.34074 14.5654 1.58136C14.7404 1.91494 14.5709 2.29774 14.2045 2.40711C14.0733 2.44539 13.9365 2.44539 13.7998 2.44539C12.0225 2.44539 10.2507 2.44539 8.47346 2.44539C8.3805 2.44539 8.293 2.44539 8.20003 2.43445C7.85005 2.38524 7.62037 2.12275 7.64771 1.80557C7.66958 1.49386 7.9102 1.27512 8.26566 1.27512C8.80157 1.26965 9.33749 1.27512 9.87888 1.26965C10.3 1.26965 10.7156 1.26965 11.1366 1.26965Z" fill="#ADADAD"/>
<path d="M11.1556 9.72398C10.1986 9.72398 9.24157 9.72945 8.29005 9.72398C7.79241 9.71851 7.50258 9.27009 7.73226 8.86542C7.85803 8.64668 8.06584 8.56465 8.30645 8.55918C8.55254 8.55371 8.79862 8.55371 9.04471 8.55371C10.6196 8.55371 12.1946 8.55371 13.7695 8.55371C13.8898 8.55371 14.0101 8.55371 14.125 8.57012C14.4859 8.63027 14.6609 8.84901 14.639 9.19353C14.6172 9.50524 14.3984 9.71304 14.0594 9.72398C13.775 9.73492 13.4961 9.72945 13.2117 9.72945C12.5172 9.72945 11.8337 9.72945 11.1556 9.72398Z" fill="url(#paint1_linear_6570_8744)"/>
<path d="M9.70046 3.45702C10.1543 3.45702 10.6137 3.45155 11.0676 3.45702C11.4559 3.46249 11.7074 3.67576 11.7238 4.00388C11.7402 4.34293 11.4887 4.61635 11.1004 4.62182C10.1598 4.63276 9.22469 4.63276 8.2841 4.62182C7.89583 4.61635 7.63881 4.34839 7.64975 4.00934C7.66069 3.68123 7.91771 3.45702 8.30051 3.45702C8.7708 3.45702 9.23563 3.45702 9.70046 3.45702Z" fill="#ADADAD"/>
<path d="M9.68699 11.9114C9.22216 11.9114 8.75733 11.9169 8.29798 11.9114C7.91518 11.9059 7.66362 11.6817 7.65269 11.3536C7.64175 11.0146 7.8933 10.7521 8.28157 10.7466C9.21669 10.7357 10.1518 10.7357 11.0924 10.7466C11.4807 10.7521 11.7377 11.0146 11.7268 11.3536C11.7158 11.6927 11.4588 11.9114 11.0541 11.9114C10.5948 11.9169 10.1409 11.9114 9.68699 11.9114Z" fill="url(#paint2_linear_6570_8744)"/>
<defs>
<linearGradient id="paint0_linear_6570_8744" x1="3.13285" y1="7.45996" x2="3.13285" y2="13.0174" gradientUnits="userSpaceOnUse">
<stop stop-color="#FF295D"/>
<stop offset="0.485577" stop-color="#E31B95"/>
<stop offset="1" stop-color="#C817AE"/>
</linearGradient>
<linearGradient id="paint1_linear_6570_8744" x1="11.1466" y1="8.55371" x2="11.1466" y2="9.73082" gradientUnits="userSpaceOnUse">
<stop stop-color="#FF295D"/>
<stop offset="0.485577" stop-color="#E31B95"/>
<stop offset="1" stop-color="#C817AE"/>
</linearGradient>
<linearGradient id="paint2_linear_6570_8744" x1="9.68972" y1="10.7384" x2="9.68972" y2="11.9138" gradientUnits="userSpaceOnUse">
<stop stop-color="#FF295D"/>
<stop offset="0.485577" stop-color="#E31B95"/>
<stop offset="1" stop-color="#C817AE"/>
</linearGradient>
</defs>
</svg>
