<svg width="15" height="15" viewBox="0 0 15 15" fill="none" xmlns="http://www.w3.org/2000/svg">
<path d="M11.3641 0.46856C11.2718 0.503578 9.349 2.38178 8.73779 3.02801C8.49267 3.29223 8.24118 3.57556 8.18388 3.66469C7.93876 4.03715 7.86872 4.57196 7.98333 5.18954C8.04699 5.52061 8.05018 5.5811 8.01516 5.74345C7.99288 5.84213 7.97378 5.93445 7.97059 5.944C7.97059 5.9631 9.14845 7.03591 9.4063 7.25556C9.48271 7.31923 9.53364 7.33833 9.58139 7.3256C9.68963 7.29058 9.94111 7.30331 10.2053 7.35743C10.5205 7.42428 10.9534 7.4211 11.2113 7.35425C11.692 7.23009 11.8703 7.08048 13.5766 5.36462C14.6239 4.30774 14.8308 4.08808 14.8786 3.96075C15.0696 3.4514 14.6271 2.96753 14.0986 3.1076C13.9713 3.13943 13.844 3.25403 12.9335 4.1613C11.9562 5.13542 11.9085 5.1768 11.7939 5.1768C11.7015 5.1768 11.6506 5.15452 11.5774 5.0813C11.4946 4.99535 11.4819 4.9667 11.4978 4.86483C11.5169 4.76296 11.6474 4.61971 12.5037 3.76019C13.0449 3.21902 13.5129 2.72559 13.5415 2.6651C13.6243 2.50275 13.5957 2.19714 13.4842 2.02842C13.3187 1.78012 12.9367 1.68143 12.6661 1.81514C12.6056 1.84697 12.109 2.31811 11.5615 2.86247C10.6351 3.78566 10.5587 3.85251 10.4568 3.85251C10.2435 3.85251 10.0971 3.62012 10.1958 3.43549C10.2213 3.38774 10.6733 2.91659 11.2017 2.39133C11.7302 1.86607 12.1822 1.39175 12.2077 1.33444C12.2332 1.27714 12.2523 1.14981 12.2523 1.05112C12.2523 0.685031 11.9944 0.430359 11.6283 0.436726C11.5264 0.436726 11.4055 0.452643 11.3641 0.46856Z" fill="url(#paint0_linear_8004_336)"/>
<path d="M2.49504 0.644395C1.98888 0.727162 1.61961 0.911799 1.28535 1.24606C1.00521 1.52301 0.84286 1.80315 0.740992 2.18516C0.661407 2.48121 0.658223 3.19111 0.737808 3.5381C1.11663 5.17437 2.62875 6.62918 4.24591 6.9125C4.41463 6.94115 4.70432 6.96025 4.96218 6.96025C5.45242 6.95707 5.63069 6.99527 5.87263 7.16081C5.96176 7.21811 6.4329 7.71153 6.97727 8.3132C8.82682 10.3538 10.8674 12.5471 11.6951 13.378C12.2713 13.9605 12.3604 14.0083 12.857 14.0115C13.1308 14.0115 13.1785 14.0019 13.3727 13.9096C13.6401 13.7855 13.8248 13.6008 13.9489 13.3334C14.0412 13.1392 14.0508 13.0915 14.0508 12.8177C14.0476 12.3179 13.9998 12.232 13.4014 11.6398C12.6023 10.8472 9.89644 8.3323 7.9864 6.6069C7.61076 6.26627 7.25422 5.91928 7.2001 5.83333C7.03457 5.59139 6.99637 5.41312 6.99955 4.92288C7.00273 4.25755 6.89131 3.75139 6.61754 3.18156C6.23872 2.40163 5.50654 1.61533 4.72979 1.1601C4.16314 0.829032 3.59332 0.660312 2.98847 0.641212C2.76882 0.634845 2.54916 0.638028 2.49504 0.644395Z" fill="url(#paint1_linear_8004_336)"/>
<path d="M5.18512 8.55509C2.98857 10.4715 1.78207 11.6303 1.46054 12.1269C1.00532 12.8304 1.18995 13.6676 1.87438 14.0051C2.07175 14.1006 2.10359 14.1069 2.43466 14.1069C2.78165 14.1069 2.79439 14.1038 3.04269 13.9828C3.27189 13.8714 3.35148 13.8045 3.97861 13.171C4.73626 12.4134 5.61487 11.4552 7.32754 9.51966C7.38484 9.45599 7.37529 9.44644 6.69723 8.69198C6.31841 8.27495 5.99688 7.91841 5.98415 7.90568C5.97142 7.88976 5.61169 8.18263 5.18512 8.55509Z" fill="url(#paint2_linear_8004_336)"/>
<defs>
<linearGradient id="paint0_linear_8004_336" x1="11.4268" y1="7.40601" x2="11.4268" y2="0.43661" gradientUnits="userSpaceOnUse">
<stop stop-color="#FF295D"/>
<stop offset="0.485577" stop-color="#E31B95"/>
<stop offset="1" stop-color="#C817AE"/>
</linearGradient>
<linearGradient id="paint1_linear_8004_336" x1="7.36523" y1="14.0115" x2="7.36523" y2="0.63774" gradientUnits="userSpaceOnUse">
<stop stop-color="#FF295D"/>
<stop offset="0.485577" stop-color="#E31B95"/>
<stop offset="1" stop-color="#C817AE"/>
</linearGradient>
<linearGradient id="paint2_linear_8004_336" x1="4.2801" y1="14.1069" x2="4.2801" y2="7.90506" gradientUnits="userSpaceOnUse">
<stop stop-color="#FF295D"/>
<stop offset="0.485577" stop-color="#E31B95"/>
<stop offset="1" stop-color="#C817AE"/>
</linearGradient>
</defs>
</svg>
