<svg width="21" height="17" viewBox="0 0 21 17" fill="none" xmlns="http://www.w3.org/2000/svg">
<path d="M1.36155 0.399366C1.06601 0.512139 0.739358 0.84268 0.630474 1.14211C0.544922 1.36377 0.544922 1.40266 0.544922 3.73589C0.544922 6.06912 0.544922 6.10801 0.630474 6.32966C0.739358 6.63298 1.07379 6.96352 1.381 7.0763C1.59099 7.15407 1.65321 7.15796 3.96699 7.15796C6.30022 7.15796 6.33911 7.15796 6.56077 7.07241C6.86409 6.96352 7.19463 6.62909 7.3074 6.32188C7.38518 6.11189 7.38907 6.04967 7.38907 3.73589C7.38907 1.40266 7.38907 1.36377 7.30351 1.14211C7.19074 0.834903 6.86798 0.512139 6.56077 0.399366C6.33911 0.313815 6.30411 0.313815 3.95533 0.317703C1.62987 0.317703 1.57154 0.321592 1.36155 0.399366Z" fill="#ADADAD"/>
<path d="M9.53585 2.25831C9.34919 2.37497 9.25586 2.54997 9.25586 2.80273C9.25586 3.0555 9.34919 3.23049 9.53585 3.34715C9.66029 3.42493 9.74195 3.42493 14.8556 3.42493C19.9693 3.42493 20.0509 3.42493 20.1754 3.34715C20.362 3.23049 20.4554 3.0555 20.4554 2.80273C20.4554 2.54997 20.362 2.37497 20.1754 2.25831C20.0509 2.18054 19.9693 2.18054 14.8556 2.18054C9.74195 2.18054 9.66029 2.18054 9.53585 2.25831Z" fill="#ADADAD"/>
<path d="M9.53585 4.59156C9.34919 4.70822 9.25586 4.88322 9.25586 5.13598C9.25586 5.38875 9.34919 5.56374 9.53585 5.6804C9.66029 5.75429 9.74195 5.75818 13.1446 5.75818C16.5472 5.75818 16.6289 5.75429 16.7533 5.6804C16.94 5.56374 17.0333 5.38875 17.0333 5.13598C17.0333 4.88322 16.94 4.70822 16.7533 4.59156C16.6289 4.51768 16.5472 4.51379 13.1446 4.51379C9.74195 4.51379 9.66029 4.51768 9.53585 4.59156Z" fill="#ADADAD"/>
<path d="M1.36155 9.42122C1.06601 9.53399 0.739358 9.86453 0.630474 10.164C0.544922 10.3856 0.544922 10.4245 0.544922 12.7577C0.544922 15.091 0.544922 15.1299 0.630474 15.3515C0.739358 15.6548 1.07379 15.9854 1.381 16.0981C1.59099 16.1759 1.65321 16.1798 3.96699 16.1798C6.30022 16.1798 6.33911 16.1798 6.56077 16.0943C6.86409 15.9854 7.19463 15.6509 7.3074 15.3437C7.38518 15.1337 7.38907 15.0715 7.38907 12.7577C7.38907 10.4245 7.38907 10.3856 7.30351 10.164C7.19074 9.85675 6.86798 9.53399 6.56077 9.42122C6.33911 9.33567 6.30411 9.33567 3.95533 9.33955C1.62987 9.33955 1.57154 9.34344 1.36155 9.42122Z" fill="#ADADAD"/>
<path d="M9.53585 11.1245C9.34919 11.2412 9.25586 11.4162 9.25586 11.6689C9.25586 11.9217 9.34919 12.0967 9.53585 12.2134C9.66029 12.2911 9.74195 12.2911 14.8556 12.2911C19.9693 12.2911 20.0509 12.2911 20.1754 12.2134C20.362 12.0967 20.4554 11.9217 20.4554 11.6689C20.4554 11.4162 20.362 11.2412 20.1754 11.1245C20.0509 11.0467 19.9693 11.0467 14.8556 11.0467C9.74195 11.0467 9.66029 11.0467 9.53585 11.1245Z" fill="#ADADAD"/>
<path d="M9.53585 13.6133C9.34919 13.73 9.25586 13.9049 9.25586 14.1577C9.25586 14.4105 9.34919 14.5855 9.53585 14.7021C9.66029 14.776 9.74195 14.7799 13.1446 14.7799C16.5472 14.7799 16.6289 14.776 16.7533 14.7021C16.94 14.5855 17.0333 14.4105 17.0333 14.1577C17.0333 13.9049 16.94 13.73 16.7533 13.6133C16.6289 13.5394 16.5472 13.5355 13.1446 13.5355C9.74195 13.5355 9.66029 13.5394 9.53585 13.6133Z" fill="#ADADAD"/>
</svg>
