<svg width="16" height="16" viewBox="0 0 16 16" fill="none" xmlns="http://www.w3.org/2000/svg">
<path d="M6.96607 0.831909C6.69708 0.955327 6.54202 1.20216 6.53886 1.50912C6.53886 1.61039 6.56101 1.7433 6.58633 1.80976C6.61797 1.88254 6.84582 2.13887 7.20658 2.49963L7.77936 3.07241L7.4186 3.17051C7.2224 3.22748 5.54202 3.68634 3.68443 4.19583L0.304688 5.11671V5.68317V6.24646H7.80468H15.3047V5.68V5.11355L15.2192 5.0914C15.1085 5.06608 8.25088 3.1895 8.02936 3.12621L7.86164 3.07874L8.40278 2.53127C9.01037 1.91735 9.06734 1.82558 9.0705 1.49963C9.0705 1.21166 8.94075 0.986972 8.69392 0.86039C8.42809 0.72115 8.05151 0.749631 7.86164 0.920517C7.80784 0.967985 7.80151 0.967985 7.74772 0.920517C7.58 0.768618 7.19708 0.724314 6.96607 0.831909Z" fill="url(#paint0_linear_6570_5828)"/>
<path d="M1.55602 7.23124C1.64779 7.48756 1.80602 7.72174 2.06235 7.97807C2.26805 8.1806 2.37881 8.26288 2.59083 8.36415C3.65729 8.87997 4.91045 8.48123 5.44526 7.44959C5.50222 7.33567 5.56235 7.21225 5.57501 7.17111L5.59399 7.10149H3.55286H1.51172L1.55602 7.23124Z" fill="url(#paint1_linear_6570_5828)"/>
<path d="M5.77734 7.14538C5.77734 7.16754 5.83431 7.30361 5.90709 7.44602C5.99886 7.62956 6.10013 7.7688 6.26152 7.93336C6.52734 8.20551 6.77101 8.35741 7.12228 8.48399C7.35329 8.5631 7.41342 8.5726 7.80266 8.56943C8.1824 8.56943 8.25835 8.55994 8.48937 8.48399C9.00202 8.3131 9.46405 7.91437 9.70455 7.43969C9.77101 7.30045 9.82797 7.16754 9.82797 7.14538C9.82797 7.10741 9.50519 7.10108 7.80266 7.10108C6.10013 7.10108 5.77734 7.10741 5.77734 7.14538Z" fill="url(#paint2_linear_6570_5828)"/>
<path d="M10.0378 7.17047C10.0473 7.21161 10.1011 7.3287 10.1549 7.43313C10.6739 8.4711 11.9587 8.88566 13.022 8.36351C13.4618 8.14515 13.8985 7.6673 14.0536 7.2306L14.0979 7.10085H12.0568H10.0156L10.0378 7.17047Z" fill="url(#paint3_linear_6570_5828)"/>
<path d="M1.46247 11.0629C1.45298 12.392 1.43399 13.9932 1.42133 14.623L1.40234 15.7717H1.97513H2.54791L2.72196 15.2243C3.58589 12.5154 4.60804 9.2749 4.60171 9.26541C4.59538 9.26224 4.47196 9.29389 4.32323 9.34136C4.08272 9.41414 4.00361 9.42364 3.54791 9.42364C3.08589 9.42364 3.01627 9.41414 2.75677 9.33503C2.38019 9.2211 2.01627 9.03756 1.73779 8.82553C1.6112 8.7306 1.50361 8.65148 1.49728 8.65148C1.49095 8.65148 1.47513 9.73693 1.46247 11.0629Z" fill="url(#paint4_linear_6570_5828)"/>
<path d="M13.8983 8.80971C13.142 9.41414 12.0407 9.60401 11.1135 9.29072C11.0091 9.25591 10.9205 9.2306 10.9141 9.23693C10.9078 9.24009 11.354 10.6895 11.9046 12.4521C12.4553 14.2179 12.911 15.6863 12.9205 15.7148C12.9363 15.7654 12.9932 15.7717 13.5059 15.7717H14.0724L14.0692 14.1008C14.066 13.1831 14.0534 11.5945 14.0439 10.5724L14.0249 8.70845L13.8983 8.80971Z" fill="url(#paint5_linear_6570_5828)"/>
<defs>
<linearGradient id="paint0_linear_6570_5828" x1="7.80468" y1="6.24646" x2="7.80468" y2="0.771792" gradientUnits="userSpaceOnUse">
<stop stop-color="#FF295D"/>
<stop offset="0.485577" stop-color="#E31B95"/>
<stop offset="1" stop-color="#C817AE"/>
</linearGradient>
<linearGradient id="paint1_linear_6570_5828" x1="3.55286" y1="8.58911" x2="3.55286" y2="7.10149" gradientUnits="userSpaceOnUse">
<stop stop-color="#FF295D"/>
<stop offset="0.485577" stop-color="#E31B95"/>
<stop offset="1" stop-color="#C817AE"/>
</linearGradient>
<linearGradient id="paint2_linear_6570_5828" x1="7.80266" y1="8.56995" x2="7.80266" y2="7.10108" gradientUnits="userSpaceOnUse">
<stop stop-color="#FF295D"/>
<stop offset="0.485577" stop-color="#E31B95"/>
<stop offset="1" stop-color="#C817AE"/>
</linearGradient>
<linearGradient id="paint3_linear_6570_5828" x1="12.0568" y1="8.58911" x2="12.0568" y2="7.10085" gradientUnits="userSpaceOnUse">
<stop stop-color="#FF295D"/>
<stop offset="0.485577" stop-color="#E31B95"/>
<stop offset="1" stop-color="#C817AE"/>
</linearGradient>
<linearGradient id="paint4_linear_6570_5828" x1="3.00204" y1="15.7717" x2="3.00204" y2="8.65148" gradientUnits="userSpaceOnUse">
<stop stop-color="#FF295D"/>
<stop offset="0.485577" stop-color="#E31B95"/>
<stop offset="1" stop-color="#C817AE"/>
</linearGradient>
<linearGradient id="paint5_linear_6570_5828" x1="12.4932" y1="15.7717" x2="12.4932" y2="8.70845" gradientUnits="userSpaceOnUse">
<stop stop-color="#FF295D"/>
<stop offset="0.485577" stop-color="#E31B95"/>
<stop offset="1" stop-color="#C817AE"/>
</linearGradient>
</defs>
</svg>
