<svg width="65" height="40" viewBox="0 0 65 40" fill="none" xmlns="http://www.w3.org/2000/svg">
<rect x="0.6875" y="0.570312" width="63.6093" height="39.154" rx="5" fill="#265697"/>
<path d="M28.3203 20.1481C28.3203 13.1848 33.966 7.53906 40.9294 7.53906C47.8927 7.53906 53.5385 13.1848 53.5385 20.1481C53.5385 27.1115 47.8927 32.7572 40.9294 32.7572C33.966 32.7572 28.3203 27.1115 28.3203 20.1481Z" fill="#DFAC16"/>
<path d="M32.4789 10.7652C32.4869 10.7652 31.8161 11.3402 31.3769 11.9071H33.6208C33.6208 11.9071 34.3874 12.7376 34.6749 13.3605H30.2909C30.2909 13.3605 29.8676 14.0313 29.5802 14.5902H35.3776C35.3776 14.5902 35.9047 15.5804 36.0245 16.1075H28.9733C28.9733 16.1075 28.7337 16.7942 28.6299 17.2973L36.3519 17.2893C36.5675 18.2556 37.0785 21.0745 36.0165 24.1888L29.0052 24.1968C29.117 24.5721 29.3087 25.0752 29.4923 25.4505H35.5134C35.2738 25.9536 34.9145 26.5924 34.7148 26.9118H30.2989C30.5304 27.2632 30.9058 27.8222 31.1453 28.0777H33.8604C33.3493 28.7804 32.4869 29.5151 32.4869 29.5151H32.4629L32.4949 29.5231C30.2589 31.5354 27.3043 32.7572 24.0622 32.7572C17.0989 32.7572 11.4531 27.1115 11.4531 20.1481C11.4531 13.1848 17.0989 7.53906 24.0622 7.53906C27.2963 7.53906 30.2509 8.76084 32.4789 10.7652Z" fill="#E20020"/>
<path d="M26.2532 18.3588L26.0535 19.4928L24.9515 19.4608C24.9515 19.4608 24.4005 19.6046 24.4005 19.8361C24.4005 20.0677 24.8078 20.3632 25.4227 20.6267C26.0376 20.8902 26.0615 21.6169 26.0056 22.112C25.9497 22.6071 25.8619 23.6292 24.0811 23.6851C23.059 23.7091 22.5 23.5095 22.5 23.5095L22.7316 22.3436C22.7316 22.3436 24.0412 22.6949 24.3287 22.4873C24.6162 22.2877 24.9675 21.9363 24.4165 21.7047C23.8655 21.4732 22.9632 21.0978 22.9632 20.1635C22.9632 19.2292 23.3385 18.7102 23.9214 18.4467C24.5123 18.1831 25.5265 18.2071 26.2532 18.3588Z" fill="#1E306D"/>
<path d="M17.5272 23.5405H16.2415L16.9842 19.1246L15.3951 23.5166H14.5087L14.2931 18.9489L13.5185 23.5405H12.3047L13.4466 16.8008H14.9239L15.443 20.6817L17.1599 16.8008H18.6691L17.5272 23.5405Z" fill="#1E306D"/>
<path d="M27.4081 23.6384C26.9928 23.6384 26.6894 23.5426 26.5137 23.3669C26.338 23.1753 26.2422 22.8958 26.2422 22.5284C26.2422 22.4326 26.2502 22.3368 26.2661 22.2569C26.2741 22.1611 26.2981 22.0573 26.3061 21.9295L27.0807 17.6094H28.2865L28.1108 18.4558H29.2367L29.0451 19.5259H27.9191L27.6077 21.3626C27.5917 21.4823 27.5678 21.6021 27.5438 21.7379C27.5278 21.8577 27.5119 21.9774 27.5119 22.0653C27.5119 22.2569 27.5438 22.3767 27.6237 22.4406C27.6955 22.5045 27.8153 22.5524 27.975 22.5524C28.0389 22.5524 28.1108 22.5364 28.2146 22.5125C28.3184 22.4725 28.4063 22.4486 28.4622 22.4007H28.566L28.3743 23.4787C28.2386 23.5346 28.0948 23.5586 27.9431 23.5825C27.7994 23.6304 27.6157 23.6384 27.4081 23.6384Z" fill="#1E306D"/>
<path d="M36.0675 19.8831C35.804 19.6835 35.221 19.7234 35.0933 20.1386L34.5183 23.5484H33.3125L34.1829 18.4697H35.3887L35.3648 18.8769C35.5963 18.6454 35.8519 18.4537 36.4987 18.4697C36.5306 18.4697 36.0994 19.2203 36.0675 19.8831Z" fill="#1E306D"/>
<path d="M38.3425 23.6833C37.6797 23.6833 37.1447 23.4517 36.7854 23.0045C36.418 22.5573 36.2344 21.9105 36.2344 21.072C36.2344 20.4093 36.3142 19.8103 36.4739 19.2753C36.6336 18.7323 36.8652 18.2771 37.1447 17.8858C37.4242 17.5105 37.7516 17.2071 38.1429 16.9915C38.5182 16.7759 38.9335 16.6641 39.3567 16.6641C39.6921 16.6641 40.0115 16.72 40.315 16.8158C40.4587 16.8637 40.7382 16.9995 40.7382 16.9995L40.4587 18.6045C40.3229 18.4289 40.1792 18.2851 40.0355 18.1893C39.8278 18.0535 39.5803 17.9737 39.3008 17.9737C38.7977 17.9737 38.3905 18.2452 38.071 18.7802C37.7436 19.3232 37.5839 20.01 37.5839 20.8485C37.5839 21.3915 37.6718 21.7828 37.8554 22.0223C38.0311 22.2539 38.2946 22.3737 38.63 22.3737C38.9415 22.3737 39.2289 22.2938 39.5004 22.1261C39.6282 22.0463 39.756 21.9584 39.8758 21.8546L39.5963 23.3878C39.5963 23.3878 39.4525 23.4597 39.3807 23.4837C39.213 23.5475 39.0612 23.5875 38.9335 23.6354C38.7897 23.6514 38.5901 23.6833 38.3425 23.6833Z" fill="#1E306D"/>
<path d="M20.4886 23.3751C20.4406 23.415 20.3927 23.439 20.3528 23.4709C20.225 23.5428 20.1132 23.5907 20.0014 23.6307C19.8896 23.6546 19.7379 23.6866 19.5463 23.6866C19.2348 23.6866 18.9793 23.5668 18.7877 23.3352C18.588 23.0956 18.4922 22.7842 18.4922 22.4009C18.4922 21.9936 18.5641 21.6582 18.6998 21.3708C18.8356 21.0993 19.0512 20.8677 19.3307 20.708C19.5942 20.5483 19.8976 20.4365 20.249 20.3726L20.4965 20.3327C20.784 20.2768 21.0875 20.2368 21.4149 20.2288C21.4149 20.2049 21.4149 20.1729 21.4229 20.133C21.4308 20.0931 21.4308 20.0532 21.4308 19.9973C21.4308 19.7817 21.359 19.6299 21.2152 19.5341C21.0635 19.4543 20.8479 19.4143 20.5604 19.4143H20.4965C20.3209 19.4303 20.1212 19.4702 19.8976 19.5501C19.6581 19.6459 19.4824 19.7098 19.3626 19.7817H19.2508L19.4265 18.5758C19.5622 18.5199 19.7858 18.472 20.0733 18.4161C20.2171 18.3762 20.3528 18.3602 20.4886 18.3443C20.6403 18.3203 20.8 18.3203 20.9437 18.3203C21.5347 18.3203 21.9579 18.4241 22.2374 18.6317C22.5169 18.8314 22.6446 19.1588 22.6446 19.606C22.6446 19.6619 22.6446 19.7417 22.6367 19.8376C22.6287 19.9334 22.6207 20.0132 22.6047 20.0931L22.0138 23.5508H20.816L20.9038 23.0078C20.8319 23.0717 20.7361 23.1595 20.6323 23.2553C20.5924 23.2873 20.5445 23.3352 20.4886 23.3751ZM20.4886 21.267C20.3608 21.2909 20.249 21.3308 20.1612 21.3708C20.0254 21.4426 19.9216 21.5305 19.8497 21.6582C19.7699 21.778 19.7379 21.9457 19.7379 22.1454C19.7379 22.321 19.7858 22.4408 19.8817 22.5127C19.9775 22.5846 20.1132 22.6245 20.2969 22.6245C20.3608 22.6245 20.4167 22.6085 20.4886 22.5846C20.5524 22.5686 20.6083 22.5446 20.6802 22.5127C20.808 22.4328 20.9357 22.337 21.0555 22.2252L21.2392 21.1472C21.0316 21.1711 20.8239 21.2031 20.6403 21.243C20.5924 21.235 20.5445 21.251 20.4886 21.267Z" fill="#1E306D"/>
<path d="M30.913 19.343C30.7533 19.3669 30.6016 19.4468 30.4818 19.5825C30.3141 19.7742 30.1863 20.0138 30.0905 20.3412H30.905H31.7116C31.7116 20.2853 31.7196 20.2453 31.7196 20.1894C31.7196 20.1495 31.7275 20.0936 31.7275 20.0537C31.7275 19.8061 31.6637 19.6384 31.5599 19.4947C31.4481 19.3749 31.3043 19.303 31.0887 19.303C31.0408 19.319 30.9689 19.327 30.913 19.343ZM30.913 22.5372H31.0967C31.3522 22.5372 31.6078 22.4813 31.8473 22.3615C32.0789 22.2417 32.2865 22.1059 32.4542 21.9542H32.59L32.3584 23.2638C32.1268 23.3996 31.8793 23.5034 31.6237 23.5753C31.4081 23.6471 31.1686 23.6711 30.913 23.6871H30.8012C30.1544 23.6871 29.6673 23.4954 29.3159 23.1041C28.9646 22.7288 28.7969 22.2018 28.7969 21.523C28.7969 21.0599 28.8608 20.6286 28.9646 20.2533C29.0764 19.862 29.2441 19.5266 29.4517 19.2232C29.6593 18.9357 29.9069 18.7201 30.2183 18.5444C30.4339 18.4406 30.6655 18.3528 30.905 18.3128C31.0168 18.2969 31.1207 18.2969 31.2324 18.2969C31.7914 18.2969 32.2067 18.4486 32.5021 18.76C32.7816 19.0555 32.9174 19.5187 32.9174 20.1096C32.9174 20.3092 32.9094 20.5168 32.8775 20.7165C32.8455 20.9081 32.8056 21.1078 32.7577 21.2994H30.905H29.9787V21.3553V21.4112C29.9787 21.7626 30.0746 22.0341 30.2582 22.2337C30.402 22.4014 30.6256 22.5052 30.913 22.5372Z" fill="#1E306D"/>
<path d="M42.2153 23.3751C42.1674 23.415 42.1115 23.439 42.0636 23.4709C41.9438 23.5428 41.824 23.5907 41.7122 23.6307C41.6004 23.6546 41.4487 23.6866 41.265 23.6866C40.9456 23.6866 40.6981 23.5668 40.4984 23.3352C40.2988 23.0956 40.2109 22.7842 40.2109 22.4009C40.2109 21.9936 40.2828 21.6582 40.4186 21.3708C40.5543 21.0993 40.7699 20.8677 41.0334 20.708C41.289 20.5483 41.6004 20.4365 41.9598 20.3726C42.0396 20.3566 42.1195 20.3486 42.2073 20.3327C42.4868 20.2768 42.7982 20.2368 43.1097 20.2288C43.1177 20.2049 43.1177 20.1729 43.1336 20.133C43.1336 20.0931 43.1416 20.0532 43.1416 19.9973C43.1416 19.7817 43.0618 19.6299 42.926 19.5341C42.7743 19.4543 42.5587 19.4143 42.2632 19.4143H42.2073C42.0157 19.4303 41.816 19.4702 41.6084 19.5501C41.3688 19.6459 41.1932 19.7098 41.0734 19.7817H40.9616L41.1293 18.5758C41.265 18.5199 41.4886 18.472 41.7841 18.4161C41.9198 18.3762 42.0636 18.3602 42.2073 18.3443C42.359 18.3203 42.5028 18.3203 42.6625 18.3203C43.2534 18.3203 43.6766 18.4241 43.9561 18.6317C44.2276 18.8314 44.3634 19.1588 44.3634 19.606C44.3634 19.6619 44.3634 19.7417 44.3554 19.8376C44.3474 19.9334 44.3394 20.0132 44.3235 20.0931L43.7325 23.5508H42.5347L42.6226 23.0078C42.5427 23.0717 42.4549 23.1595 42.3431 23.2553L42.2153 23.3751ZM42.2153 21.267C42.0875 21.2909 41.9757 21.3308 41.8719 21.3708C41.7442 21.4426 41.6324 21.5305 41.5605 21.6582C41.4886 21.778 41.4487 21.9457 41.4487 22.1454C41.4487 22.321 41.4966 22.4408 41.6004 22.5127C41.6883 22.5846 41.832 22.6245 42.0077 22.6245C42.0716 22.6245 42.1354 22.6085 42.2073 22.5846C42.2632 22.5686 42.3271 22.5446 42.383 22.5127C42.5187 22.4328 42.6465 22.337 42.7583 22.2252L42.95 21.1472C42.7343 21.1711 42.5347 21.2031 42.3431 21.243C42.3031 21.235 42.2552 21.251 42.2153 21.267Z" fill="#1E306D"/>
<path d="M47.2941 19.8833C47.0305 19.6836 46.4476 19.7236 46.3198 20.1388L45.7449 23.5486H44.5391L45.4015 18.4699H46.6073L46.5913 18.8691C46.8229 18.6375 47.0784 18.4459 47.7253 18.4619C47.7652 18.4699 47.326 19.2205 47.2941 19.8833Z" fill="#1E306D"/>
<path fill-rule="evenodd" clip-rule="evenodd" d="M49.6634 19.5416C49.5995 19.5656 49.5436 19.6135 49.4957 19.6534C49.336 19.7572 49.2082 19.9249 49.0964 20.1166C49.0086 20.3082 48.9287 20.5238 48.8808 20.8033C48.8169 21.0748 48.793 21.3464 48.793 21.6019C48.793 21.9133 48.8568 22.1289 48.9527 22.2647C49.0645 22.4084 49.2242 22.4803 49.4318 22.4803C49.5117 22.4803 49.5915 22.4643 49.6714 22.4244C49.7113 22.4084 49.7432 22.4004 49.7832 22.3685C49.9029 22.3046 50.0147 22.2327 50.1185 22.1369L50.5498 19.6375C50.4779 19.5975 50.406 19.5576 50.2942 19.5257C50.1904 19.4857 50.1026 19.4698 50.0227 19.4698C49.887 19.4777 49.7752 19.5017 49.6634 19.5416ZM49.6634 23.2788C49.5755 23.3587 49.4717 23.4385 49.3679 23.5104C49.2641 23.5663 49.1683 23.6222 49.0804 23.6462C48.9766 23.6701 48.8568 23.6861 48.7291 23.6861C48.3617 23.6861 48.0663 23.5184 47.8507 23.215C47.643 22.8875 47.5312 22.4324 47.5312 21.8494C47.5312 21.3623 47.5792 20.8992 47.6989 20.4839C47.8107 20.0687 47.9705 19.6854 48.1701 19.366C48.3697 19.0385 48.6013 18.799 48.8648 18.6073C49.1204 18.4316 49.3839 18.3358 49.6634 18.3199H49.7033C49.9109 18.3199 50.0946 18.3438 50.2383 18.3997C50.3901 18.4556 50.5498 18.5514 50.7095 18.6712L50.981 16.8984H52.1868L51.0848 23.5503H49.879L49.9668 23.0233C49.855 23.1111 49.7512 23.199 49.6634 23.2788Z" fill="#1E306D"/>
<path d="M26.5032 18.1728L26.3035 19.3068L25.1936 19.2748C25.1936 19.2748 24.6426 19.4186 24.6426 19.6502C24.6426 19.8817 25.0498 20.1772 25.6567 20.4327C26.2716 20.6963 26.2956 21.4229 26.2397 21.918C26.1838 22.4131 26.0959 23.4353 24.3231 23.4912C23.301 23.5231 22.75 23.3155 22.75 23.3155L22.9816 22.1496C22.9816 22.1496 24.2912 22.501 24.5787 22.2934C24.8662 22.0937 25.2175 21.7424 24.6665 21.5108C24.1155 21.2792 23.2132 20.8959 23.2132 19.9696C23.2132 19.0353 23.5885 18.5162 24.1714 18.2527C24.7544 17.9972 25.7765 18.0291 26.5032 18.1728Z" fill="white"/>
<path d="M17.7616 23.3649H16.4759L17.2265 18.941L15.6374 23.341H14.751L14.5354 18.7653L13.7529 23.3649H12.5391L13.689 16.6172H15.1583L15.6774 20.4981L17.3942 16.6172H18.9115L17.7616 23.3649Z" fill="white"/>
<path d="M27.6581 23.4626C27.2428 23.4626 26.9394 23.3668 26.7637 23.1911C26.58 22.9995 26.4922 22.72 26.4922 22.3526C26.4922 22.2568 26.5002 22.161 26.5161 22.0811C26.5241 21.9853 26.5481 21.8815 26.5561 21.7537L27.3307 17.4336H28.5365L28.3608 18.2801H29.4867L29.2951 19.3501H28.1691L27.8577 21.1868C27.8417 21.3066 27.8178 21.4263 27.7938 21.5621C27.7778 21.6819 27.7619 21.8096 27.7619 21.8895C27.7619 22.0811 27.7938 22.2009 27.8737 22.2648C27.9455 22.3287 28.0653 22.3766 28.225 22.3766C28.2889 22.3766 28.3608 22.3606 28.4646 22.3367C28.5684 22.2968 28.6563 22.2728 28.7122 22.2249H28.816L28.6243 23.3109C28.4886 23.3668 28.3448 23.3908 28.1931 23.4147C28.0414 23.4467 27.8657 23.4626 27.6581 23.4626Z" fill="white"/>
<path d="M36.3019 19.6997C36.0383 19.5001 35.4554 19.54 35.3276 19.9552L34.7527 23.365H33.5469L34.4173 18.2783H35.6231L35.5991 18.6855C35.8307 18.454 36.0863 18.2623 36.7331 18.2783C36.765 18.2863 36.3338 19.0449 36.3019 19.6997Z" fill="white"/>
<path d="M38.5769 23.5036C37.9061 23.5036 37.3791 23.272 37.0197 22.8248C36.6524 22.3777 36.4688 21.7308 36.4688 20.8924C36.4688 20.2296 36.5486 19.6307 36.7083 19.0956C36.868 18.5526 37.0996 18.0974 37.3711 17.7062C37.6506 17.3308 37.978 17.0274 38.3693 16.8118C38.7446 16.5962 39.1519 16.4844 39.5831 16.4844C39.9185 16.4844 40.2459 16.5403 40.5413 16.6361C40.6851 16.684 40.9646 16.8198 40.9646 16.8198L40.6851 18.4248C40.5493 18.2492 40.4056 18.1054 40.2619 18.0096C40.0542 17.8738 39.7987 17.794 39.5272 17.794C39.0321 17.794 38.6168 18.0655 38.2974 18.6085C37.97 19.1515 37.8103 19.8383 37.8103 20.6768C37.8103 21.2198 37.8981 21.6111 38.0818 21.8506C38.2575 22.0822 38.521 22.202 38.8564 22.202C39.1678 22.202 39.4553 22.1221 39.7268 21.9624C39.8546 21.8746 39.9824 21.7867 40.1021 21.6909L39.8227 23.2241C39.8227 23.2241 39.6789 23.296 39.607 23.3199C39.4393 23.3838 39.2876 23.4238 39.1599 23.4637C39.0321 23.4717 38.8325 23.5036 38.5769 23.5036Z" fill="white"/>
<path d="M20.7309 23.1878C20.683 23.2277 20.6271 23.2517 20.5952 23.2836C20.4674 23.3475 20.3556 23.4034 20.2438 23.4433C20.132 23.4673 19.9883 23.4992 19.7886 23.4992C19.4772 23.4992 19.2217 23.3794 19.03 23.1479C18.8304 22.9003 18.7266 22.5889 18.7266 22.2136C18.7266 21.8063 18.7984 21.4709 18.9342 21.1834C19.0699 20.9119 19.2855 20.6804 19.565 20.5206C19.8206 20.3609 20.132 20.2491 20.4834 20.1853L20.7309 20.1453C21.0184 20.0894 21.3218 20.0495 21.6492 20.0335C21.6492 20.0096 21.6492 19.9776 21.6572 19.9377C21.6652 19.8978 21.6652 19.8578 21.6652 19.802C21.6652 19.5863 21.5934 19.4346 21.4496 19.3388C21.2979 19.2589 21.0823 19.219 20.7948 19.219H20.7309C20.5552 19.235 20.3556 19.2749 20.132 19.3548C19.8924 19.4506 19.7168 19.5145 19.597 19.5863H19.4852L19.6609 18.3805C19.7966 18.3246 20.0202 18.2687 20.3077 18.2208C20.4434 18.1809 20.5872 18.1649 20.7229 18.149C20.8747 18.125 21.0344 18.125 21.1781 18.125C21.769 18.125 22.1923 18.2368 22.4718 18.4364C22.7512 18.6361 22.879 18.9635 22.879 19.4107C22.879 19.4666 22.879 19.5464 22.871 19.6422C22.863 19.7381 22.8471 19.8179 22.8391 19.8978L22.2482 23.3555H21.0503L21.1382 22.8125C21.0663 22.8764 20.9705 22.9642 20.8667 23.06C20.8267 23.1079 20.7788 23.1479 20.7309 23.1878ZM20.7309 21.0796C20.6032 21.1036 20.4914 21.1435 20.4035 21.1914C20.2678 21.2553 20.1639 21.3511 20.0921 21.4709C20.0122 21.5907 19.9803 21.7584 19.9803 21.958C19.9803 22.1337 20.0282 22.2535 20.116 22.3254C20.2198 22.3892 20.3476 22.4372 20.5313 22.4372C20.5872 22.4372 20.6511 22.4212 20.7229 22.3972C20.7868 22.3813 20.8427 22.3573 20.9146 22.3333C21.0424 22.2535 21.1701 22.1577 21.2899 22.0459L21.4656 20.9678C21.258 20.9918 21.0503 21.0237 20.8667 21.0637C20.8267 21.0477 20.7788 21.0637 20.7309 21.0796Z" fill="white"/>
<path d="M31.1552 19.1594C30.9955 19.1833 30.8438 19.2712 30.724 19.3989C30.5563 19.5906 30.4205 19.8302 30.3327 20.1576H31.1472H31.9538C31.9538 20.1017 31.9617 20.0617 31.9617 20.0058C31.9617 19.9659 31.9697 19.91 31.9697 19.8701C31.9697 19.6225 31.9058 19.4469 31.802 19.3111C31.6902 19.1913 31.5465 19.1195 31.3309 19.1195C31.291 19.1354 31.2191 19.1514 31.1552 19.1594ZM31.1552 22.3536H31.3389C31.5944 22.3536 31.85 22.2977 32.0895 22.1779C32.3211 22.0581 32.5287 21.9224 32.6964 21.7706H32.8322L32.6006 23.0802C32.369 23.216 32.1215 23.3278 31.8659 23.3917C31.6503 23.4556 31.4108 23.4875 31.1552 23.5035H31.0434C30.3966 23.5035 29.9095 23.3118 29.5581 22.9205C29.2068 22.5452 29.0391 22.0182 29.0391 21.3394C29.0391 20.8763 29.1029 20.445 29.2068 20.0697C29.3186 19.6784 29.4862 19.343 29.6939 19.0396C29.9015 18.7521 30.149 18.5365 30.4605 18.3608C30.6761 18.249 30.9077 18.1692 31.1472 18.1293C31.259 18.1133 31.3628 18.1133 31.4746 18.1133C32.0336 18.1133 32.4489 18.257 32.7443 18.5685C33.0238 18.8639 33.1596 19.3271 33.1596 19.918C33.1596 20.1176 33.1516 20.3253 33.1196 20.5249C33.0877 20.7165 33.0478 20.9162 32.9999 21.1078H31.1472H30.2209V21.1637V21.2196C30.2209 21.571 30.3247 21.8425 30.5004 22.0421C30.6521 22.2178 30.8677 22.3216 31.1552 22.3536Z" fill="white"/>
<path d="M42.4575 23.1878C42.4096 23.2277 42.3537 23.2517 42.3058 23.2836C42.186 23.3475 42.0662 23.4034 41.9544 23.4433C41.8426 23.4673 41.6909 23.4992 41.5072 23.4992C41.1878 23.4992 40.9402 23.3794 40.7406 23.1479C40.541 22.9003 40.4531 22.5889 40.4531 22.2136C40.4531 21.8063 40.525 21.4709 40.6607 21.1834C40.7965 20.9119 41.0121 20.6804 41.2756 20.5206C41.5312 20.3609 41.8426 20.2491 42.2019 20.1853C42.2818 20.1693 42.3617 20.1613 42.4495 20.1453C42.729 20.0894 43.0404 20.0495 43.3598 20.0335C43.3678 20.0096 43.3678 19.9776 43.3758 19.9377C43.3758 19.8978 43.3838 19.8578 43.3838 19.802C43.3838 19.5863 43.3039 19.4346 43.1602 19.3388C43.0085 19.2589 42.7929 19.219 42.5054 19.219H42.4415C42.2499 19.235 42.0502 19.2749 41.8426 19.3548C41.603 19.4506 41.4194 19.5145 41.3076 19.5863H41.1958L41.3635 18.3805C41.4992 18.3246 41.7228 18.2687 42.0183 18.2208C42.154 18.1809 42.2978 18.1649 42.4335 18.149C42.5852 18.125 42.729 18.125 42.8967 18.125C43.4876 18.125 43.9108 18.2368 44.1903 18.4364C44.4618 18.6361 44.5976 18.9635 44.5976 19.4107C44.5976 19.4666 44.5976 19.5464 44.5896 19.6422C44.5816 19.7381 44.5656 19.8179 44.5577 19.8978L43.9667 23.3555H42.7689L42.8647 22.8125C42.7849 22.8764 42.697 22.9642 42.5852 23.06L42.4575 23.1878ZM42.4575 21.0796C42.3297 21.1036 42.2179 21.1435 42.1221 21.1914C41.9943 21.2553 41.8825 21.3511 41.8107 21.4709C41.7388 21.5907 41.6989 21.7584 41.6989 21.958C41.6989 22.1337 41.7468 22.2535 41.8506 22.3254C41.9384 22.3892 42.0822 22.4372 42.2578 22.4372C42.3137 22.4372 42.3856 22.4212 42.4575 22.3972C42.5214 22.3813 42.5773 22.3573 42.6332 22.3333C42.7689 22.2535 42.8887 22.1577 43.0165 22.0459L43.2081 20.9678C42.9925 20.9918 42.7929 21.0237 42.6012 21.0637C42.5453 21.0477 42.4974 21.0637 42.4575 21.0796Z" fill="white"/>
<path d="M47.5362 19.6997C47.2727 19.5001 46.6898 19.54 46.562 19.9552L45.9871 23.365H44.7812L45.6517 18.2783H46.8575L46.8335 18.6855C47.0651 18.454 47.3206 18.2623 47.9675 18.2783C47.9994 18.2863 47.5682 19.0449 47.5362 19.6997Z" fill="white"/>
<path fill-rule="evenodd" clip-rule="evenodd" d="M49.9135 19.366C49.8497 19.39 49.7938 19.4379 49.7459 19.4778C49.5861 19.5816 49.4584 19.7493 49.3466 19.941C49.2587 20.1326 49.1789 20.3482 49.131 20.6277C49.0671 20.8992 49.0431 21.1707 49.0431 21.4263C49.0431 21.7377 49.107 21.9533 49.2028 22.0891C49.3146 22.2408 49.4743 22.3047 49.682 22.3047C49.7618 22.3047 49.8417 22.2887 49.9215 22.2488C49.9615 22.2328 49.9934 22.2248 50.0333 22.1929C50.1531 22.129 50.2649 22.0571 50.3687 21.9613L50.7999 19.4618C50.7281 19.4219 50.6482 19.382 50.5444 19.3501C50.4406 19.3101 50.3527 19.2942 50.2729 19.2942C50.1292 19.2942 50.0174 19.3181 49.9135 19.366ZM49.9135 23.0952C49.8257 23.1751 49.7219 23.255 49.6101 23.3268C49.5143 23.3827 49.4105 23.4306 49.3226 23.4626C49.2188 23.4865 49.099 23.5025 48.9713 23.5025C48.6039 23.5025 48.3085 23.3428 48.0929 23.0314C47.8852 22.704 47.7734 22.2488 47.7734 21.6658C47.7734 21.1787 47.8213 20.7156 47.9411 20.3003C48.0529 19.8851 48.2126 19.5018 48.4123 19.1824C48.6119 18.855 48.8435 18.6154 49.107 18.4237C49.3705 18.2481 49.6261 18.1522 49.9056 18.1363H49.9455C50.1531 18.1363 50.3368 18.1602 50.4805 18.2161C50.6322 18.272 50.7919 18.3678 50.9517 18.4876L51.2232 16.7148H52.429L51.327 23.3667H50.1212L50.209 22.8397C50.0972 22.9355 50.0014 23.0154 49.9135 23.0952Z" fill="white"/>
</svg>
