<svg width="14" height="11" viewBox="0 0 14 11" fill="none" xmlns="http://www.w3.org/2000/svg">
<path d="M7.1572 0.00222168C8.71182 0.00222168 10.2714 -0.00277711 11.8261 0.00222168C12.7209 0.00722047 13.4407 0.522096 13.7256 1.35689C13.8706 1.78179 13.8506 2.22668 13.8356 2.66658C13.8306 2.82654 13.6856 2.87653 13.5756 2.94151C12.261 3.75131 10.9463 4.55112 9.6316 5.35593C8.93677 5.78082 8.23694 6.20072 7.54211 6.63062C7.26218 6.80558 7.00724 6.79558 6.7273 6.62562C4.70779 5.38592 2.68328 4.15122 0.653775 2.91652C0.503811 2.82654 0.428829 2.71656 0.433828 2.53661C0.438827 2.1717 0.423831 1.80179 0.523806 1.44687C0.778745 0.567085 1.52856 0.00722048 2.46334 0.00722048C4.02796 -0.00277711 5.59258 0.00222168 7.1572 0.00222168Z" fill="#ADADAD"/>
<path d="M7.14174 10.7295C5.58711 10.7295 4.02749 10.7345 2.47287 10.7295C1.55309 10.7245 0.823266 10.1996 0.543333 9.34481C0.463353 9.10487 0.438359 8.85493 0.438359 8.60499C0.43336 7.28031 0.438359 5.95563 0.438359 4.63095C0.438359 4.52598 0.39337 4.39101 0.508342 4.33603C0.603319 4.29104 0.693297 4.39101 0.773278 4.446C2.47786 5.50074 4.18745 6.55549 5.89204 7.61023C6.70184 8.11011 7.53164 8.13511 8.34644 7.63523C10.071 6.58048 11.7856 5.51074 13.5102 4.446C13.5952 4.39101 13.6852 4.28104 13.7951 4.35102C13.8851 4.41101 13.8451 4.53598 13.8451 4.63095C13.8451 5.94564 13.8501 7.26032 13.8451 8.58C13.8401 9.90468 13.0103 10.7295 11.6856 10.7295C10.171 10.7345 8.65637 10.7295 7.14174 10.7295Z" fill="#ADADAD"/>
</svg>
