<svg width="65" height="40" viewBox="0 0 65 40" fill="none" xmlns="http://www.w3.org/2000/svg">
<rect x="0.96875" y="0.570312" width="63.6093" height="39.154" rx="5" fill="#F6F6F6"/>
<path fill-rule="evenodd" clip-rule="evenodd" d="M46.3949 15.7316C45.1836 15.7316 44.2234 16.0537 43.4907 16.1984L43.2662 18.042C43.6325 17.8677 44.7877 17.5456 45.7479 17.5161C46.7081 17.4866 47.2694 17.6904 47.0745 18.5117C44.2264 18.5117 42.309 19.0967 41.9131 20.9403C41.3488 24.0986 44.8173 24.0129 46.1999 22.6361L46.0315 23.3954H48.5694L49.6684 18.364C50.1175 16.228 48.1705 15.7021 46.3949 15.7316ZM46.5633 20.8782C46.4215 21.5519 45.8868 21.8443 45.2398 21.8739C44.6755 21.9034 44.1673 21.4041 44.5336 20.8192C44.8173 20.3228 45.6061 20.2046 46.0847 20.2046C46.2827 20.2046 46.5072 20.2046 46.7052 20.2046C46.649 20.441 46.6195 20.6448 46.5633 20.8782Z" fill="#0044B7"/>
<path fill-rule="evenodd" clip-rule="evenodd" d="M51.835 13.7422L49.7344 23.3973H52.3136L54.4378 13.7422H51.835Z" fill="#0044B7"/>
<path fill-rule="evenodd" clip-rule="evenodd" d="M39.9975 13.7734H35.2792L33.1875 23.396H35.9292L36.6353 20.2082H38.5852C40.5056 20.2082 42.0892 19.0382 42.5146 17.0499C42.9933 14.7957 41.3535 13.7734 39.9975 13.7734ZM39.9147 17.0469C39.7434 17.7796 39.0107 18.3646 38.3016 18.3646H37.0312L37.5955 15.7322H38.9516C39.6607 15.7322 40.0831 16.3172 39.9147 17.0469Z" fill="#0044B7"/>
<path fill-rule="evenodd" clip-rule="evenodd" d="M21.6788 15.7316C20.4823 15.7316 19.5339 16.0537 18.8367 16.1984L18.6151 18.042C18.949 17.8677 20.0923 17.5456 21.0377 17.5161C21.9861 17.4866 22.5415 17.6904 22.3761 18.5117C19.5635 18.5117 17.6697 19.0967 17.2797 20.9403C16.7213 24.0986 20.1485 24.0129 21.4868 22.6361L21.3214 23.3954H23.8563L24.9435 18.364C25.3837 16.228 23.4338 15.7021 21.6788 15.7316ZM21.8738 20.8782C21.735 21.5519 21.1766 21.8443 20.5355 21.8739C19.9771 21.9034 19.5044 21.4041 19.8678 20.8192C20.1455 20.3228 20.9255 20.2046 21.3716 20.2046C21.5932 20.2046 21.7882 20.2046 22.0127 20.2046C21.9566 20.441 21.9034 20.6448 21.8738 20.8782Z" fill="#00297C"/>
<path fill-rule="evenodd" clip-rule="evenodd" d="M26.0449 15.8711H28.5798L28.9876 20.353L31.4693 15.8711H34.0839L28.0628 26.5957H25.2266L27.0819 23.4433L26.0449 15.8711Z" fill="#00297C"/>
<path fill-rule="evenodd" clip-rule="evenodd" d="M15.3746 13.7734H10.6445L8.54688 23.396H11.324L12.0036 20.2082H13.986C15.8857 20.2082 17.4722 19.0382 17.8976 17.0499C18.3792 14.7957 16.7631 13.7734 15.3746 13.7734ZM15.2918 17.0469C15.1205 17.7796 14.4144 18.3646 13.7053 18.3646H12.4024L12.9962 15.7322H14.3553C15.0348 15.7322 15.4898 16.3172 15.2918 17.0469Z" fill="#00297C"/>
<path d="M54.9958 14.9903V13.8528H54.5703V13.6992H55.5925V13.8528H55.1671V14.9903H54.9958Z" fill="#0044B7"/>
<path d="M55.7656 14.9903V13.6992H56.0227L56.3299 14.6121C56.3595 14.6978 56.3772 14.7599 56.392 14.8042C56.4067 14.7569 56.4304 14.689 56.4599 14.5974L56.7672 13.6992H56.9976V14.9903H56.8322V13.909L56.457 14.9903H56.3033L55.9311 13.8913V14.9903H55.7656Z" fill="#0044B7"/>
</svg>
