<svg width="21" height="21" viewBox="0 0 21 21" fill="none" xmlns="http://www.w3.org/2000/svg">
<path d="M5.37784 0.423973C5.03774 0.516727 4.73298 0.662483 4.4768 0.86124C3.95119 1.26317 3.54043 1.29851 3.02366 0.984913C2.49805 0.666899 2.01661 0.627148 1.49543 0.865658C1.15091 1.01583 0.828482 1.36034 0.700394 1.70044C0.60764 1.94779 0.60764 1.96545 0.60764 9.73469C0.60764 18.2813 0.589973 17.6718 0.872651 18.0914C1.03607 18.321 1.34084 18.5595 1.62351 18.67C1.80902 18.7451 2.1447 18.7495 6.71614 18.7627C9.406 18.7671 11.6056 18.7671 11.6056 18.7583C11.6056 18.7451 11.5128 18.6037 11.398 18.4359C11.0049 17.8484 10.6957 17.0578 10.5853 16.3246C10.5014 15.8034 10.5588 14.7655 10.6913 14.2531C10.9431 13.3079 11.3538 12.588 12.0473 11.8769C12.5022 11.4175 12.9704 11.0686 13.4827 10.808C14.1144 10.4944 14.9712 10.2912 15.6912 10.2868L16.1549 10.2824V6.11287C16.1549 2.00962 16.1549 1.94337 16.0622 1.70044C15.8678 1.17925 15.3334 0.772903 14.7681 0.719902C14.397 0.684566 14.1055 0.759653 13.7389 0.984913C13.4916 1.13509 13.39 1.17042 13.1647 1.18367C12.8556 1.20576 12.6303 1.113 12.1489 0.777321C12.0031 0.671316 11.7513 0.538811 11.5968 0.485809C11.2567 0.366554 10.5455 0.317968 10.1878 0.393055C9.86977 0.459309 9.43692 0.666899 9.13216 0.896576C8.60213 1.29409 8.14278 1.29409 7.61718 0.892159C7.12249 0.516727 6.63664 0.353304 6.01386 0.357719C5.79744 0.357719 5.51034 0.388638 5.37784 0.423973ZM4.95382 5.29134C5.39992 5.55193 5.51476 6.15262 5.19233 6.51922C4.77273 6.99624 4.0837 6.90791 3.82752 6.33813C3.50509 5.63585 4.29129 4.90266 4.95382 5.29134ZM12.7186 5.45476C12.7849 5.50335 12.8776 5.61819 12.9351 5.71094C13.1073 6.02012 12.9792 6.4353 12.6524 6.61639C12.5243 6.68706 12.2725 6.69148 9.7726 6.70473L7.03415 6.71356L6.83539 6.61639C6.34954 6.36905 6.29654 5.75511 6.74264 5.45035L6.90165 5.34434L9.75051 5.35318C12.5199 5.36643 12.6038 5.37084 12.7186 5.45476ZM5.04215 9.02358C5.55451 9.41667 5.46617 10.1543 4.8699 10.4281C4.65347 10.5297 4.49888 10.5341 4.28246 10.4458C3.82752 10.2515 3.62876 9.77444 3.82752 9.34159C3.97769 9.01474 4.22504 8.86899 4.6093 8.89107C4.82573 8.8999 4.91407 8.93082 5.04215 9.02358ZM12.7186 9.12075C12.9174 9.27092 13.0322 9.51826 13.0057 9.74794C12.9792 9.9997 12.8688 10.1543 12.6215 10.278L12.4271 10.3795H9.72843H7.02974L6.83539 10.278C6.55272 10.1366 6.42463 9.92903 6.44671 9.64635C6.4688 9.38134 6.59247 9.187 6.80006 9.08541C6.93257 9.01916 7.23733 9.01032 9.7726 9.02358C12.5199 9.03241 12.6038 9.03683 12.7186 9.12075ZM5.04215 12.5571C5.55451 12.9502 5.46617 13.6878 4.8699 13.9616C4.65347 14.0632 4.49888 14.0676 4.28246 13.9793C3.82752 13.7849 3.62876 13.3079 3.82752 12.8751C3.97769 12.5482 4.22504 12.4025 4.6093 12.4245C4.82573 12.4334 4.91407 12.4643 5.04215 12.5571ZM9.4325 12.6321C9.86094 12.8927 9.85652 13.4802 9.42808 13.7982C9.30883 13.8865 9.23816 13.8909 8.16928 13.9042C7.06065 13.9174 7.02974 13.913 6.83539 13.8159C6.5483 13.6701 6.42463 13.4669 6.44671 13.1798C6.4688 12.9148 6.59247 12.7205 6.80006 12.6189C6.92373 12.5571 7.12691 12.5438 8.11628 12.5438C9.20724 12.5438 9.29558 12.5482 9.4325 12.6321Z" fill="#ADADAD"/>
<path d="M14.8289 11.0377C13.9234 11.2365 13.2255 11.6208 12.5498 12.2965C11.8607 12.9856 11.4809 13.6834 11.2866 14.6198C11.1585 15.2293 11.1938 16.2408 11.3572 16.7973C11.6002 17.6188 11.9888 18.2637 12.5851 18.8423C13.1681 19.4121 13.7556 19.7522 14.5506 19.9907C15.1071 20.1541 16.1186 20.1894 16.7281 20.0613C17.6645 19.867 18.3623 19.4872 19.0514 18.7981C19.7404 18.1091 20.1202 17.4112 20.3146 16.4749C20.4427 15.8653 20.4073 14.8539 20.2439 14.2974C20.0054 13.5023 19.6653 12.9149 19.0955 12.3319C18.5169 11.7356 17.8721 11.3513 17.0505 11.104C16.5161 10.945 15.4031 10.9096 14.8289 11.0377ZM17.4481 13.9749C17.7749 14.1119 17.9427 14.4696 17.8588 14.8274C17.8367 14.9069 17.4657 15.3132 16.7811 16.0023C15.3191 17.4687 15.3633 17.4598 14.4402 16.55C14.1133 16.2275 13.8218 15.9139 13.7865 15.8477C13.5877 15.4634 13.8572 14.9555 14.2988 14.8981C14.5727 14.8583 14.6919 14.9157 15.0144 15.2249L15.3147 15.5208L16.0567 14.7832C16.9269 13.9175 17.0947 13.8203 17.4481 13.9749Z" fill="#ADADAD"/>
</svg>
