<svg width="15" height="12" viewBox="0 0 15 12" fill="none" xmlns="http://www.w3.org/2000/svg">
<path d="M5.37912 11.4103C5.14344 11.4103 4.97619 11.3323 4.83174 11.1936C4.10951 10.498 3.38728 9.80424 2.66505 9.11051C2.10247 8.57074 1.53989 8.03097 0.977306 7.49309C0.663706 7.1928 0.640898 6.78797 0.927891 6.46296C1.34032 5.99731 1.75276 5.53357 2.16899 5.06982C2.46168 4.74481 2.92543 4.73531 3.22573 5.06031C3.7731 5.6533 4.31098 6.2558 4.84885 6.85829C4.93058 6.95142 4.96669 6.94572 5.04081 6.85069C6.22109 5.35111 7.53631 3.98077 9.03209 2.79098C10.3245 1.76275 11.7101 0.890373 13.2686 0.31829C13.4073 0.266973 13.5422 0.204253 13.6962 0.198551C13.9414 0.190949 14.1485 0.323992 14.2455 0.552065C14.3443 0.780138 14.3082 1.02532 14.1257 1.19257C13.7722 1.51377 13.4092 1.82357 13.0519 2.14097C10.6305 4.30007 8.53413 6.72905 6.85969 9.50964C6.5613 10.0057 6.26861 10.5075 5.98541 11.013C5.84477 11.2639 5.6338 11.4007 5.37912 11.4103Z" fill="black"/>
</svg>
