<svg width="21" height="27" viewBox="0 0 21 27" fill="none" xmlns="http://www.w3.org/2000/svg">
<path d="M9.59261 0.0584125C8.9157 0.149887 8.30587 0.338934 7.58017 0.692634C5.84826 1.5403 4.66519 2.99779 4.12244 4.97973C4.01267 5.37612 3.98828 5.62005 3.98828 6.5165C3.98828 7.48003 4.00658 7.63858 4.15293 8.19353C4.81155 10.6328 6.72641 12.4379 9.20841 12.9441C10.178 13.1453 11.605 13.0539 12.5808 12.7246C14.6237 12.0476 16.2275 10.3218 16.8008 8.19353C16.9471 7.63858 16.9654 7.48003 16.9654 6.5165C16.9654 5.62005 16.941 5.37612 16.8313 4.97973C16.2885 2.99779 15.1116 1.5403 13.3735 0.692634C12.1478 0.0889039 10.9403 -0.11234 9.59261 0.0584125Z" fill="black" fill-opacity="0.2"/>
<path d="M5.78236 14.3528C5.73357 14.365 5.48355 14.4077 5.23352 14.4443C4.66028 14.5358 3.81261 14.8163 3.25157 15.0968C1.16596 16.1457 -0.108583 18.0301 0.00728418 19.8962C0.0804636 21.0914 0.501245 21.9208 1.56845 22.9819C2.82469 24.226 4.12363 24.9639 6.02629 25.5127C8.28876 26.1652 11.4111 26.2628 13.9236 25.7566C16.1921 25.2993 17.9606 24.4028 19.3876 22.9819C20.467 21.9086 20.8817 21.0853 20.9488 19.8718C21.0708 17.7191 19.3328 15.5725 16.7959 14.7187C15.6921 14.3467 15.936 14.365 10.6915 14.3467C8.04483 14.3406 5.83115 14.3406 5.78236 14.3528Z" fill="black" fill-opacity="0.2"/>
</svg>
