<svg width="20" height="20" viewBox="0 0 20 20" fill="none" xmlns="http://www.w3.org/2000/svg">
<path d="M6.56305 0.0534278C4.75101 0.397928 3.31505 1.77593 2.86203 3.59815C2.69963 4.24182 2.69963 5.41131 2.86203 6.08217C3.22957 7.5599 4.27235 8.77471 5.69977 9.36399C6.21261 9.5725 6.40065 9.60876 7.26394 9.60876C8.12722 9.60876 8.31527 9.5725 8.82811 9.36399C10.6743 8.5934 11.7941 6.87996 11.7941 4.81296C11.7941 3.13579 11.0419 1.6762 9.70849 0.760559C8.83666 0.162217 7.52036 -0.127888 6.56305 0.0534278Z" fill="url(#paint0_linear_7911_360)"/>
<path d="M12.5043 0.0989176C12.265 0.280233 12.2564 0.561272 12.4872 0.914838C13.9317 3.16315 14.0086 6.10047 12.6838 8.35785C12.2735 9.06498 12.2308 9.29162 12.453 9.5364C12.7693 9.87183 14.4018 9.47294 15.2737 8.83834C16.5558 7.89549 17.2652 6.4631 17.2652 4.81313C17.2652 3.13596 16.513 1.67636 15.1796 0.760719C14.3164 0.171443 12.8804 -0.182122 12.5043 0.0989176Z" fill="url(#paint1_linear_7911_360)"/>
<path d="M3.82923 11.6578C2.06847 11.9841 0.692338 13.2624 0.179495 15.0484C0.0256422 15.5742 0 15.9006 0 17.197V18.3475C0 18.5938 0.0878975 18.832 0.247874 19.0192V19.0192V19.0192C0.404882 19.2087 0.638172 19.3184 0.884265 19.3184H7.26528H13.6463C13.8924 19.3184 14.1257 19.2087 14.2827 19.0192V19.0192V19.0192C14.4427 18.832 14.5306 18.5938 14.5306 18.3475V17.197C14.5306 15.9006 14.5049 15.5742 14.3511 15.0484C13.9066 13.5163 12.804 12.3286 11.368 11.821C10.8381 11.6306 10.6415 11.6215 7.5217 11.6034C5.70965 11.5943 4.05146 11.6124 3.82923 11.6578Z" fill="url(#paint2_linear_7911_360)"/>
<path d="M15.2395 11.7031C14.9745 11.9025 14.9916 12.1473 15.2993 12.6459C15.6583 13.2533 16.0515 14.1962 16.2054 14.858C16.2908 15.2116 16.3592 16.0456 16.3849 17.0882C16.4362 18.7472 16.4362 18.7563 16.6755 19.0373V19.0373C16.8216 19.2152 17.0397 19.3184 17.2699 19.3184H18.2055H19.1161C19.3622 19.3184 19.5955 19.2087 19.7525 19.0192V19.0192V19.0192C19.9125 18.832 20.0004 18.5938 20.0004 18.3475V17.197C20.0004 15.9006 19.9748 15.5742 19.8209 15.0484C19.2739 13.1627 17.7866 11.8663 15.8977 11.6215C15.5387 11.5762 15.3848 11.5943 15.2395 11.7031Z" fill="url(#paint3_linear_7911_360)"/>
<defs>
<linearGradient id="paint0_linear_7911_360" x1="7.26714" y1="9.60876" x2="7.26714" y2="-9.72748e-05" gradientUnits="userSpaceOnUse">
<stop stop-color="#FF295D"/>
<stop offset="0.485577" stop-color="#E31B95"/>
<stop offset="1" stop-color="#C817AE"/>
</linearGradient>
<linearGradient id="paint1_linear_7911_360" x1="14.7923" y1="9.65808" x2="14.7923" y2="0.000713348" gradientUnits="userSpaceOnUse">
<stop stop-color="#FF295D"/>
<stop offset="0.485577" stop-color="#E31B95"/>
<stop offset="1" stop-color="#C817AE"/>
</linearGradient>
<linearGradient id="paint2_linear_7911_360" x1="7.26528" y1="19.3184" x2="7.26528" y2="11.6011" gradientUnits="userSpaceOnUse">
<stop stop-color="#FF295D"/>
<stop offset="0.485577" stop-color="#E31B95"/>
<stop offset="1" stop-color="#C817AE"/>
</linearGradient>
<linearGradient id="paint3_linear_7911_360" x1="17.5271" y1="19.3184" x2="17.5271" y2="11.5983" gradientUnits="userSpaceOnUse">
<stop stop-color="#FF295D"/>
<stop offset="0.485577" stop-color="#E31B95"/>
<stop offset="1" stop-color="#C817AE"/>
</linearGradient>
</defs>
</svg>
