<svg width="17" height="22" viewBox="0 0 17 22" fill="none" xmlns="http://www.w3.org/2000/svg">
<path d="M16.2306 12.9768C16.2306 15.0103 16.2372 17.0437 16.2306 19.0772C16.224 20.3416 15.578 21.362 14.5365 21.7539C14.2201 21.8722 13.8905 21.9018 13.561 21.9018C10.186 21.9018 6.81772 21.9092 3.4428 21.9018C1.7949 21.9018 0.766602 20.7409 0.766602 18.8997C0.766602 13.7754 0.766602 8.65114 0.766602 3.51947C0.766602 2.18109 1.37962 1.17546 2.43428 0.753984C2.75727 0.62828 3.10004 0.598703 3.4428 0.591309C5.80261 0.591309 8.169 0.598703 10.5288 0.591309C11.1352 0.591309 11.6296 0.813139 12.0581 1.30117C13.2314 2.63954 14.4113 3.96313 15.5978 5.27193C16.0328 5.75256 16.2372 6.29974 16.2306 6.98741C16.224 8.98389 16.2306 10.9804 16.2306 12.9768ZM8.49858 10.9434C9.23684 10.9434 9.96851 10.9434 10.7068 10.9434C11.1484 10.9434 11.5835 10.9508 12.0251 10.936C12.3942 10.9212 12.6315 10.6402 12.6315 10.2631C12.6315 9.886 12.3876 9.60501 12.0317 9.57543C11.9526 9.56804 11.8801 9.56804 11.801 9.56804C9.60597 9.56804 7.41096 9.56804 5.21595 9.56804C5.0973 9.56804 4.97206 9.56065 4.85341 9.59022C4.44473 9.69374 4.24698 10.204 4.45791 10.6032C4.60293 10.8842 4.84023 10.9434 5.11048 10.9434C6.23765 10.9434 7.36482 10.9434 8.49858 10.9434ZM8.53813 13.0286C7.54939 13.0286 6.56064 13.0286 5.57849 13.0286C5.36756 13.0286 5.16322 13.0212 4.95229 13.036C4.60952 13.0656 4.37881 13.3392 4.37881 13.7089C4.37881 14.0564 4.59634 14.3374 4.91274 14.3892C5.01161 14.4039 5.11048 14.4039 5.20936 14.4039C7.40437 14.4039 9.59938 14.4039 11.7944 14.4039C11.9262 14.4039 12.0581 14.4039 12.1833 14.367C12.4667 14.2856 12.6447 13.9973 12.6315 13.6793C12.6183 13.3392 12.4008 13.0804 12.0976 13.0434C11.979 13.0286 11.8537 13.0286 11.7351 13.0286C10.6606 13.0286 9.59938 13.0286 8.53813 13.0286ZM14.3585 6.78037C13.1655 5.442 11.946 4.07404 10.7463 2.72088C10.7463 3.68954 10.7397 4.73214 10.7463 5.77474C10.7529 6.36629 11.0429 6.7508 11.5637 6.76558C12.5327 6.80256 13.495 6.78037 14.3585 6.78037ZM6.94955 17.8793C7.57575 17.8793 8.20196 17.8867 8.82816 17.8793C9.32913 17.8719 9.62575 17.48 9.52687 17.0067C9.45437 16.6666 9.19729 16.4596 8.7952 16.4596C7.57575 16.4522 6.3563 16.4522 5.14344 16.4596C4.67544 16.4596 4.37881 16.7479 4.37881 17.1694C4.37881 17.5909 4.68203 17.8793 5.14344 17.8793C5.74328 17.8793 6.34971 17.8793 6.94955 17.8793Z" fill="#ADADAD"/>
</svg>
