<svg width="21" height="21" viewBox="0 0 21 21" fill="none" xmlns="http://www.w3.org/2000/svg">
<path d="M9.18225 0.366364C9.13049 0.418123 9.07873 0.507528 9.06461 0.563995C9.05049 0.625168 8.92815 1.09572 8.79169 1.60863L8.547 2.54503L8.26467 2.62502C7.84587 2.74737 7.39414 2.92618 6.97064 3.14263C6.7636 3.24615 6.57538 3.33085 6.55656 3.33085C6.53303 3.33085 6.10953 3.08616 5.60604 2.78972C4.9802 2.41798 4.65081 2.24858 4.552 2.24858C4.42965 2.24858 4.28378 2.37092 3.52619 3.13322C2.75918 3.89552 2.64155 4.03668 2.64155 4.15903C2.64155 4.26255 2.80624 4.58253 3.18739 5.21777L3.73323 6.13065L3.51207 6.56826C3.2815 7.03882 2.99917 7.73053 2.94741 7.97522C2.90976 8.14933 2.96623 8.1305 1.72397 8.44107C1.13577 8.58694 0.792269 8.69517 0.726391 8.75634C0.618164 8.85045 0.618164 8.86457 0.618164 10.1115C0.618164 11.2409 0.627575 11.3773 0.702864 11.4714C0.768741 11.5514 1.00402 11.6267 1.81337 11.8291C2.37804 11.9655 2.858 12.0926 2.88153 12.1114C2.90506 12.1255 2.92388 12.1632 2.92388 12.2008C2.92388 12.3467 3.22974 13.1701 3.44619 13.603C3.57324 13.8571 3.67677 14.0783 3.67677 14.0971C3.67677 14.116 3.43208 14.5442 3.13563 15.0429C2.75918 15.6782 2.59449 15.9982 2.59449 16.097C2.59449 16.224 2.71213 16.3605 3.47913 17.1275C4.42495 18.078 4.45789 18.0968 4.75904 17.9416L4.90021 17.8663V16.704C4.90021 15.4194 4.92373 15.2641 5.19665 14.7418C5.28135 14.5865 5.46487 14.3418 5.61074 14.1959C5.97307 13.8336 6.35422 13.6501 7.03652 13.5183L7.17298 13.4901L7.03182 13.3395C6.95182 13.2548 6.80595 13.0713 6.70243 12.9302C5.33312 11.0526 5.52604 8.51165 7.15886 6.8553C7.75176 6.24829 8.50936 5.81538 9.37517 5.5801C9.94454 5.42482 11.0503 5.42482 11.6244 5.5801C13.3702 6.05536 14.5983 7.28351 15.0736 9.02926C15.2242 9.58452 15.2242 10.7515 15.0736 11.2926C14.8665 12.0455 14.5042 12.7372 14.029 13.269L13.836 13.4901L13.9678 13.5183C14.636 13.6501 15.0077 13.8242 15.3794 14.1912C15.53 14.3371 15.7182 14.5865 15.8029 14.7418C16.0759 15.2688 16.0994 15.4147 16.0994 16.7511V17.9651L16.2217 18.0121C16.5135 18.1251 16.5464 18.1062 17.4734 17.1746C18.2404 16.4123 18.3581 16.2711 18.3581 16.1487C18.3581 16.0452 18.1934 15.7252 17.8122 15.09L17.2711 14.1818L17.5252 13.6595C17.671 13.3772 17.8546 12.9302 17.9393 12.6714C18.024 12.4125 18.0992 12.1914 18.104 12.1867C18.1134 12.1773 18.5792 12.0502 19.1439 11.9091C19.8685 11.7302 20.2026 11.622 20.2779 11.5561C20.3814 11.4573 20.3814 11.4385 20.3814 10.2151C20.3814 9.50923 20.3626 8.93515 20.3344 8.8881C20.2732 8.77046 20.1509 8.72811 19.158 8.48342C18.1839 8.24344 18.0757 8.20579 18.0757 8.11168C18.0757 7.96581 17.8169 7.2741 17.5722 6.75649L17.3087 6.20123L17.8546 5.28836C18.2592 4.61547 18.4051 4.33313 18.4051 4.2202C18.4051 4.07903 18.311 3.97081 17.5205 3.18028C16.7817 2.4368 16.617 2.29563 16.4994 2.29563C16.41 2.29563 16.0523 2.48386 15.4453 2.84148L14.5277 3.38261L13.9348 3.10499C13.6102 2.9497 13.1631 2.76148 12.9326 2.6909C12.5373 2.56385 12.5185 2.54973 12.4761 2.38974C12.4526 2.30034 12.335 1.83449 12.2173 1.35453C12.0385 0.639284 11.982 0.465179 11.8832 0.375774C11.7656 0.272251 11.7468 0.272251 10.5186 0.272251C9.34224 0.272251 9.27165 0.276957 9.18225 0.366364Z" fill="#ADADAD"/>
<path d="M9.84153 7.21786C8.74043 7.45314 7.78991 8.41307 7.55934 9.51887C7.11231 11.6552 8.99923 13.5421 11.1355 13.0951C12.4907 12.8127 13.5118 11.5517 13.5118 10.1541C13.5118 8.24367 11.7237 6.81318 9.84153 7.21786Z" fill="#ADADAD"/>
<path d="M6.82629 14.2668C6.36044 14.3938 5.96988 14.7232 5.73931 15.1844C5.63108 15.4008 5.63108 15.4055 5.61697 17.7348C5.60756 19.8287 5.61226 20.0828 5.67814 20.1487C5.74872 20.2146 6.20516 20.224 10.5013 20.224C14.7975 20.224 15.2539 20.2146 15.3245 20.1487C15.3904 20.0828 15.3951 19.8287 15.3857 17.7348L15.3716 15.4008L15.2633 15.1797C15.0845 14.8267 14.8116 14.5491 14.4634 14.3797L14.1481 14.2244L10.5954 14.215C7.88033 14.2103 6.99099 14.2197 6.82629 14.2668Z" fill="#ADADAD"/>
</svg>
