<svg width="22" height="22" viewBox="0 0 22 22" fill="none" xmlns="http://www.w3.org/2000/svg">
<path d="M9.4232 0.0618382C7.13867 0.340551 4.94095 1.3823 3.29609 2.96776C2.66556 3.57545 2.26805 4.04149 1.7883 4.75884C0.906468 6.06559 0.30792 7.63735 0.0611909 9.29135C-0.0301904 9.92645 -0.0164832 11.681 0.0840362 12.3069C0.403871 14.2442 1.14863 15.9622 2.29546 17.4151C2.62901 17.8401 3.60678 18.8178 4.03171 19.1514C5.4801 20.2937 7.22092 21.0476 9.13992 21.3628C9.84813 21.477 11.5844 21.477 12.2926 21.3628C14.6091 20.9836 16.5601 20.0195 18.1775 18.4569C20.0097 16.6841 21.1566 14.3128 21.4124 11.7586C21.4764 11.0916 21.4444 9.75282 21.3393 9.10859C20.5672 4.25167 16.6834 0.555298 11.8037 0.0389938C11.2143 -0.020404 10.0355 -0.0112669 9.4232 0.0618382ZM11.2006 4.08261C11.3239 4.15572 11.4473 4.28365 11.525 4.41616L11.6529 4.6309L11.6666 7.48657L11.6803 10.3422L13.0419 11.713C13.7912 12.4668 14.4446 13.1568 14.4903 13.2436C14.5406 13.3395 14.5725 13.504 14.5725 13.6548C14.5771 14.3721 13.7912 14.8291 13.1835 14.4681C12.9322 14.3173 9.98063 11.3611 9.8664 11.1418C9.78416 10.991 9.77959 10.8128 9.77959 7.8064V4.6309L9.90296 4.41616C10.1817 3.95011 10.73 3.80847 11.2006 4.08261Z" fill="black" fill-opacity="0.2"/>
</svg>
