<svg width="16" height="13" viewBox="0 0 16 13" fill="none" xmlns="http://www.w3.org/2000/svg">
<path d="M7.52706 0.271639C7.17377 0.298135 6.85876 0.386456 6.49959 0.563099C5.76063 0.922272 5.21304 1.57879 4.96574 2.40313C4.89214 2.64748 4.88331 2.70931 4.88331 3.1833C4.88036 3.63373 4.88919 3.73089 4.94808 3.94875C5.23365 4.99388 6.02854 5.78289 7.07367 6.06257C7.46523 6.16561 8.10998 6.1715 8.49859 6.07435C10.2797 5.6298 11.2218 3.74266 10.5123 2.04101C10.3739 1.70833 10.1149 1.34327 9.81752 1.06064C9.19338 0.46889 8.43088 0.20687 7.52706 0.271639Z" fill="url(#paint0_linear_6570_6294)"/>
<path d="M3.42224 0.961228C2.49487 1.16142 1.75886 1.92099 1.59694 2.8513C1.54394 3.14865 1.57338 3.66975 1.65582 3.93471C1.90017 4.70605 2.46837 5.26836 3.2456 5.51566C3.43402 5.57454 3.52823 5.58337 3.89329 5.58337C4.21125 5.58337 4.36728 5.56865 4.50859 5.53038C4.61458 5.50094 4.70584 5.47444 4.70879 5.46856C4.71468 5.46267 4.65874 5.36257 4.58219 5.24481C3.96395 4.288 3.81969 3.08388 4.18769 1.97103C4.27896 1.70313 4.43499 1.37045 4.56453 1.17614C4.61163 1.10254 4.6293 1.05249 4.60869 1.03188C4.55864 0.981836 4.13176 0.917067 3.86974 0.920011C3.72842 0.920011 3.52823 0.940619 3.42224 0.961228Z" fill="url(#paint1_linear_6570_6294)"/>
<path d="M11.2277 0.964767C10.9421 1.02659 10.948 1.0207 11.0186 1.13258C11.3396 1.6154 11.5574 2.27487 11.6075 2.90489C11.6722 3.75866 11.4603 4.6036 11.0069 5.28957C10.945 5.38083 10.9009 5.45738 10.9068 5.46326C10.9627 5.51626 11.3013 5.57808 11.6104 5.58986C12.1668 5.61341 12.5731 5.50154 13.0235 5.20124C13.7007 4.75081 14.0981 3.94119 14.0451 3.11686C14.0245 2.78713 13.9656 2.56044 13.8302 2.27487C13.5064 1.58596 12.9146 1.11786 12.1727 0.958879C11.9284 0.908831 11.4779 0.908831 11.2277 0.964767Z" fill="url(#paint2_linear_6570_6294)"/>
<path d="M3.36424 6.46936C2.06592 6.63128 0.973682 7.24659 0.5939 8.03559C0.31716 8.60968 0.393705 9.20438 0.797039 9.59888C1.07967 9.87267 1.53599 10.0788 2.13363 10.1936C2.29261 10.223 2.44276 10.2495 2.46337 10.2495C2.48986 10.2495 2.50753 10.1818 2.52225 10.0287C2.56641 9.54883 2.79604 8.98652 3.13461 8.53902C3.6351 7.87367 4.55952 7.24659 5.47512 6.9463C5.63999 6.8933 5.77541 6.84031 5.77836 6.83148C5.7813 6.78143 5.18955 6.5989 4.76266 6.51941C4.53597 6.47819 3.5821 6.44287 3.36424 6.46936Z" fill="url(#paint3_linear_6570_6294)"/>
<path d="M11.0201 6.49337C10.6197 6.55225 10.1016 6.69062 9.89256 6.79661C9.80719 6.83782 9.80719 6.84077 10.1134 6.94381C11.5501 7.42958 12.6246 8.39228 12.975 9.50513C13.0309 9.68766 13.1104 10.1175 13.1104 10.2441C13.1104 10.2676 13.4342 10.2117 13.7434 10.1322C14.4882 9.94673 14.9504 9.61111 15.1153 9.14006C15.1977 8.91337 15.1948 8.53654 15.1153 8.27746C14.8592 7.46196 13.92 6.79072 12.6747 6.53753C12.2978 6.46099 11.4176 6.43743 11.0201 6.49337Z" fill="url(#paint4_linear_6570_6294)"/>
<path d="M7.32548 7.45276C5.37947 7.59408 3.76614 8.58917 3.43935 9.85216C3.37458 10.1053 3.38047 10.5234 3.45407 10.7589C3.71609 11.6039 4.68762 12.0837 6.48054 12.2516C6.90743 12.2898 8.62381 12.2928 9.10663 12.2516C11.2175 12.0808 12.2303 11.4419 12.2273 10.282C12.2244 9.13676 11.0585 8.05629 9.37748 7.63235C8.73862 7.47337 7.97612 7.40566 7.32548 7.45276Z" fill="url(#paint5_linear_6570_6294)"/>
<defs>
<linearGradient id="paint0_linear_6570_6294" x1="7.81625" y1="6.14368" x2="7.81625" y2="0.262014" gradientUnits="userSpaceOnUse">
<stop stop-color="#FF295D"/>
<stop offset="0.485577" stop-color="#E31B95"/>
<stop offset="1" stop-color="#C817AE"/>
</linearGradient>
<linearGradient id="paint1_linear_6570_6294" x1="3.13976" y1="5.58337" x2="3.13976" y2="0.919914" gradientUnits="userSpaceOnUse">
<stop stop-color="#FF295D"/>
<stop offset="0.485577" stop-color="#E31B95"/>
<stop offset="1" stop-color="#C817AE"/>
</linearGradient>
<linearGradient id="paint2_linear_6570_6294" x1="12.478" y1="5.5929" x2="12.478" y2="0.922048" gradientUnits="userSpaceOnUse">
<stop stop-color="#FF295D"/>
<stop offset="0.485577" stop-color="#E31B95"/>
<stop offset="1" stop-color="#C817AE"/>
</linearGradient>
<linearGradient id="paint3_linear_6570_6294" x1="3.10403" y1="10.2495" x2="3.10403" y2="6.46019" gradientUnits="userSpaceOnUse">
<stop stop-color="#FF295D"/>
<stop offset="0.485577" stop-color="#E31B95"/>
<stop offset="1" stop-color="#C817AE"/>
</linearGradient>
<linearGradient id="paint4_linear_6570_6294" x1="12.5099" y1="10.2495" x2="12.5099" y2="6.46258" gradientUnits="userSpaceOnUse">
<stop stop-color="#FF295D"/>
<stop offset="0.485577" stop-color="#E31B95"/>
<stop offset="1" stop-color="#C817AE"/>
</linearGradient>
<linearGradient id="paint5_linear_6570_6294" x1="7.81093" y1="12.2814" x2="7.81093" y2="7.43806" gradientUnits="userSpaceOnUse">
<stop stop-color="#FF295D"/>
<stop offset="0.485577" stop-color="#E31B95"/>
<stop offset="1" stop-color="#C817AE"/>
</linearGradient>
</defs>
</svg>
