<svg width="23" height="23" viewBox="0 0 23 23" fill="none" xmlns="http://www.w3.org/2000/svg">
<path d="M2.85754 0.889294C1.78935 1.10413 0.834541 2.0828 0.637611 3.1689C0.595839 3.39566 0.583904 4.72046 0.601806 6.98813C0.619709 10.3538 0.625676 10.4791 0.756962 10.9685C0.918086 11.601 1.37759 12.5559 1.73564 13.0273C2.1653 13.5942 10.4781 21.8473 10.7944 22.0264C11.2598 22.2889 11.9521 22.4918 12.513 22.5276C13.1814 22.5694 13.7662 22.4441 14.4286 22.1218C14.9299 21.8772 14.9597 21.8533 18.2837 18.5234C21.6135 15.1995 21.6374 15.1696 21.8821 14.6684C22.2043 14.006 22.3297 13.4211 22.2879 12.7468C22.2461 12.1202 22.0074 11.3802 21.6911 10.9088C21.5718 10.7238 19.5726 8.68291 17.1319 6.25412C13.4201 2.55424 12.7219 1.88588 12.3579 1.67104C11.8148 1.36073 11.3136 1.15187 10.6989 0.990742C10.2394 0.865423 10.0842 0.859456 6.6708 0.847521C4.71941 0.841553 3.00076 0.859456 2.85754 0.889294ZM5.13118 3.67017C6.10389 4.37434 5.64438 5.89607 4.45684 5.908C3.40059 5.91397 2.83367 4.67869 3.52591 3.885C3.9496 3.4076 4.64184 3.31212 5.13118 3.67017Z" fill="url(#paint0_linear_6570_12153)"/>
<defs>
<linearGradient id="paint0_linear_6570_12153" x1="11.4447" y1="22.5354" x2="11.4447" y2="0.846378" gradientUnits="userSpaceOnUse">
<stop stop-color="#FF295D"/>
<stop offset="0.485577" stop-color="#E31B95"/>
<stop offset="1" stop-color="#C817AE"/>
</linearGradient>
</defs>
</svg>
