<svg width="23" height="23" viewBox="0 0 23 23" fill="none" xmlns="http://www.w3.org/2000/svg">
<path d="M11.6233 22.8492C5.45905 22.8298 0.485737 17.8516 0.503956 11.7189C0.522176 5.55949 5.5125 0.58131 11.6421 0.606818C17.8052 0.632325 22.7755 5.62143 22.7463 11.7523C22.7166 17.9032 17.739 22.8686 11.6233 22.8492ZM7.19416 10.6336C6.99496 10.6354 6.83645 10.6464 6.6828 10.7126C5.81251 11.0873 5.61756 12.1513 6.31112 12.8503C7.20205 13.7479 8.11121 14.6273 9.01004 15.5177C9.72181 16.2228 10.436 16.2173 11.1441 15.4952C11.7181 14.9103 12.2895 14.3225 12.8653 13.7394C14.2445 12.342 15.6286 10.95 17.0029 9.54834C17.3776 9.16634 17.4596 8.56145 17.2325 8.11143C16.9963 7.64198 16.4606 7.3699 15.9128 7.43549C15.5612 7.47739 15.2976 7.66688 15.0565 7.91102C13.4714 9.51737 11.8814 11.1183 10.3 12.7276C10.1263 12.9044 10.0176 12.9165 9.83781 12.7343C9.26268 12.1507 8.67115 11.5835 8.08509 11.0108C7.82698 10.7593 7.52636 10.6118 7.19416 10.6336Z" fill="black" fill-opacity="0.2"/>
</svg>
