<svg width="19" height="19" viewBox="0 0 19 19" fill="none" xmlns="http://www.w3.org/2000/svg">
<path d="M1.71553 0.232257C1.19101 0.373174 0.603857 0.842895 0.35334 1.32827C0.0949934 1.82148 0.106736 1.48876 0.106736 7.27415C0.106736 13.0987 0.0871647 12.6759 0.368997 13.2122C0.615601 13.6858 1.10098 14.0929 1.62941 14.273L1.88776 14.3591L5.7747 14.3709C9.00794 14.3787 9.65773 14.3709 9.65773 14.3278C9.65773 14.3004 9.63424 14.1869 9.60292 14.0812C9.45809 13.5958 9.40721 13.1809 9.40329 12.5194C9.40329 11.7796 9.43852 11.5251 9.64598 10.8988C10.057 9.62667 11.0473 8.49934 12.2608 7.92393C12.9184 7.61079 13.5016 7.46596 14.2884 7.42681L14.7894 7.39941L14.7777 4.67503L14.7659 1.95065L14.6603 1.66099C14.4019 0.952496 13.8187 0.412317 13.118 0.228343C12.7814 0.142227 2.04433 0.142227 1.71553 0.232257ZM10.6755 3.25804C10.6755 5.68493 10.6755 5.72016 10.5933 5.82193C10.5463 5.88456 10.4758 5.92371 10.4132 5.92371C10.3584 5.92371 9.66555 5.71233 8.87486 5.45399L7.43438 4.98427L5.9939 5.45399C5.19929 5.71233 4.51037 5.92371 4.45948 5.92371C4.41251 5.92371 4.32639 5.88065 4.27551 5.82585L4.17765 5.7319V3.26196V0.795922H7.42655H10.6755V3.25804Z" fill="#ADADAD"/>
<path d="M13.8852 8.03756C12.433 8.20979 11.0904 9.16098 10.4289 10.484C9.79866 11.7484 9.82606 13.4198 10.4993 14.8289C11.0082 15.8897 11.8459 16.8135 13.0163 17.6042C13.576 17.98 14.2649 18.3323 14.4528 18.3323C14.719 18.3323 15.8111 17.6982 16.4844 17.1541C17.322 16.4808 18.0618 15.5648 18.4298 14.7428C18.602 14.3631 18.7664 13.8112 18.8369 13.3689C18.9308 12.817 18.9034 11.8345 18.7821 11.3922C18.5824 10.6367 18.2262 9.98299 17.7291 9.44672C16.7505 8.38594 15.3296 7.86924 13.8852 8.03756ZM14.8051 10.9968C15.2592 11.1142 15.6154 11.4078 15.8189 11.8345C15.9285 12.0654 15.9403 12.1241 15.9403 12.4803C15.9403 12.8248 15.9285 12.8992 15.8346 13.0949C15.6897 13.408 15.4157 13.6899 15.1026 13.8425C14.8638 13.96 14.8168 13.9678 14.4528 13.9678C14.1084 13.9678 14.034 13.956 13.8343 13.8621C13.3959 13.6546 13.118 13.3376 12.9771 12.8757C12.7775 12.2181 13.0985 11.4704 13.7247 11.1377C14.1084 10.9303 14.4098 10.8911 14.8051 10.9968Z" fill="#ADADAD"/>
</svg>
