<svg width="25" height="19" viewBox="0 0 25 19" fill="none" xmlns="http://www.w3.org/2000/svg">
<path d="M20.2321 3.24662C20.2819 3.20114 20.2141 3.11729 20.1466 3.11729C19.6866 3.11729 19.2583 3.11729 18.83 3.11729C17.5762 3.11656 16.3224 3.12241 15.0686 3.11218C14.5476 3.10779 14.1816 2.84111 14.0289 2.39906C13.8718 1.94387 13.9909 1.46748 14.3467 1.1723C14.5798 0.978679 14.8545 0.888079 15.157 0.888079C17.7501 0.887348 20.3424 0.882964 22.9355 0.891001C23.6727 0.893193 24.1184 1.35496 24.1191 2.08342C24.1221 4.6765 24.1213 7.26884 24.1191 9.86192C24.1184 10.6094 23.6778 11.1033 23.0268 11.0996C22.3773 11.096 21.9111 10.6013 21.906 9.86411C21.895 8.3429 21.9031 6.82096 21.8994 5.29901C21.8994 5.28761 21.8996 5.27613 21.9 5.2646C21.9094 5.0171 21.7136 4.93754 21.5377 5.11197V5.11197C19.4678 7.17313 17.4001 9.23722 15.3316 11.3006C15.2111 11.4204 15.0912 11.5439 14.9582 11.6491C14.4168 12.078 13.8783 12.0575 13.3866 11.5753C12.7173 10.9192 12.0503 10.2601 11.4007 9.585C11.191 9.36727 11.0705 9.368 10.8542 9.585C8.10695 12.3461 5.34947 15.0978 2.59638 17.853C2.33919 18.1102 2.06593 18.3155 1.67869 18.3112C1.22057 18.306 0.880818 18.1037 0.678428 17.6989C0.473846 17.2904 0.527184 16.89 0.807022 16.5342C0.979456 16.315 1.176 16.1134 1.37401 15.9154C4.23012 13.0563 7.08842 10.1988 9.94599 7.34118C10.0059 7.28127 10.0658 7.21989 10.1279 7.16144C10.871 6.46148 11.4139 6.46805 12.1379 7.18774C12.7502 7.7971 13.364 8.40647 13.9697 9.02167C14.1209 9.17511 14.2415 9.23868 14.4227 9.05675C16.3567 7.1176 18.2959 5.18357 20.2321 3.24662V3.24662Z" fill="url(#paint0_linear_8216_263)"/>
<defs>
<linearGradient id="paint0_linear_8216_263" x1="12.3379" y1="0.88623" x2="12.3379" y2="18.3112" gradientUnits="userSpaceOnUse">
<stop stop-color="#FF295D"/>
<stop offset="0.485577" stop-color="#E31B95"/>
<stop offset="1" stop-color="#C817AE"/>
</linearGradient>
</defs>
</svg>
