<svg width="19" height="18" viewBox="0 0 19 18" fill="none" xmlns="http://www.w3.org/2000/svg">
<path d="M9.44884 17.6426C8.44884 17.6651 7.42884 17.609 6.42884 17.3622C5.98884 17.25 5.56884 17.093 5.17884 16.8574C4.01884 16.1619 3.66884 14.827 4.31884 13.5482C4.71884 12.7629 5.31884 12.2132 6.01884 11.7982C7.02884 11.1924 8.10884 10.912 9.24884 10.8783C10.4088 10.8447 11.5388 11.0466 12.5988 11.585C13.4588 12.0225 14.2188 12.6171 14.6888 13.5706C15.0688 14.3558 15.1588 15.1635 14.7388 15.9712C14.4588 16.5321 13.9788 16.835 13.4688 17.0593C12.8388 17.3398 12.1788 17.4632 11.5088 17.5529C10.8388 17.6314 10.1488 17.6539 9.44884 17.6426Z" fill="#ADADAD"/>
<path d="M9.50906 0.849609C11.5391 0.849609 13.1791 2.68933 13.1791 4.95532C13.1791 7.22131 11.5291 9.09468 9.51906 9.08346C7.35906 9.06102 5.81906 7.10913 5.83906 4.93288C5.84906 2.67811 7.48906 0.849609 9.50906 0.849609Z" fill="#ADADAD"/>
<path d="M14.3491 8.30955C14.0691 8.32077 13.7891 8.25347 13.5191 8.17494C13.3991 8.13007 13.3591 8.0852 13.4391 7.95058C13.9691 7.10925 14.2291 6.16696 14.2491 5.14614C14.2791 4.08045 14.0491 3.08207 13.5591 2.17343C13.4291 1.93786 13.4391 1.91542 13.6691 1.85933C15.3691 1.41062 17.0291 2.70066 17.2491 4.65256C17.4791 6.58202 16.1091 8.30955 14.3491 8.30955Z" fill="#ADADAD"/>
<path d="M4.67902 8.30944C3.13902 8.30944 1.84902 6.97453 1.73902 5.30308C1.62902 3.5531 2.72902 2.02749 4.25902 1.79191C4.64902 1.73582 5.01902 1.76948 5.39902 1.87044C5.53902 1.90409 5.55902 1.9714 5.47902 2.10601C4.94902 3.0483 4.71902 4.08034 4.75902 5.1909C4.78902 6.16685 5.05902 7.06427 5.53902 7.89438C5.66902 8.11874 5.66902 8.12996 5.43902 8.19726C5.17902 8.27579 4.91902 8.32066 4.67902 8.30944Z" fill="#ADADAD"/>
<path d="M14.3786 9.47607C15.5986 9.50973 16.7486 9.81261 17.7286 10.6876C18.1686 11.0802 18.5186 11.5626 18.6386 12.202C18.7986 13.0545 18.5286 13.75 17.8586 14.1875C17.3586 14.5241 16.7986 14.6699 16.2286 14.7709C16.0986 14.7933 16.0886 14.7148 16.0786 14.6026C16.0086 13.75 15.7286 12.9872 15.2486 12.3142C14.5086 11.2821 13.5486 10.6315 12.4486 10.194C12.3486 10.1604 12.2486 10.1267 12.1586 10.0818C12.1186 10.0706 12.0586 10.0706 12.0586 10.0033C12.0586 9.94722 12.1186 9.936 12.1486 9.92479C12.5486 9.7453 12.9586 9.62191 13.3786 9.54338C13.7286 9.50973 14.0486 9.47607 14.3786 9.47607Z" fill="#ADADAD"/>
<path d="M6.9786 10.0259C6.7786 10.1044 6.6086 10.1717 6.4386 10.239C5.3386 10.6989 4.3686 11.3832 3.6586 12.4489C3.2286 13.0883 2.9686 13.8062 2.9286 14.6027C2.9286 14.6925 2.9186 14.7934 2.7986 14.771C2.1486 14.6588 1.50861 14.5018 0.968605 14.053C0.308605 13.5034 0.138605 12.6172 0.508605 11.7422C0.818605 11.0355 1.33861 10.5531 1.95861 10.1941C2.96861 9.59958 4.0486 9.39766 5.1886 9.50984C5.7086 9.56593 6.21861 9.68932 6.7086 9.88003C6.7886 9.91368 6.8786 9.93612 6.9786 10.0259Z" fill="#ADADAD"/>
</svg>
