<svg width="17" height="11" viewBox="0 0 17 11" fill="none" xmlns="http://www.w3.org/2000/svg">
<path d="M7.68347 0.164656C6.27903 0.31836 4.92883 0.851809 3.7444 1.7228C2.62627 2.54558 1.62568 3.70892 0.959622 4.96568L0.796875 5.27309L0.959622 5.5805C2.00241 7.54552 3.74741 9.14888 5.65818 9.88425C8.20486 10.8698 11.0258 10.49 13.2591 8.86256C14.4103 8.02472 15.42 6.85535 16.0951 5.5805L16.2578 5.27309L16.0951 4.96568C15.0523 3.00067 13.3043 1.39731 11.3965 0.661937C10.2181 0.206849 8.90407 0.0290327 7.68347 0.164656ZM9.26573 2.16584C9.87453 2.31653 10.3115 2.56668 10.7726 3.02779C11.2368 3.49192 11.4809 3.9229 11.6406 4.54977C11.7341 4.91746 11.7341 5.62873 11.6406 5.99641C11.4809 6.62329 11.2368 7.05427 10.7726 7.5184C10.3085 7.98252 9.87754 8.22664 9.25066 8.38638C8.88298 8.47981 8.17171 8.47981 7.80403 8.38638C7.17715 8.22664 6.74617 7.98252 6.28204 7.5184C5.81791 7.05427 5.57379 6.62329 5.41406 5.99641C5.32063 5.62873 5.32063 4.91746 5.41406 4.54977C5.56174 3.97112 5.8149 3.50699 6.21875 3.08204C6.70398 2.5727 7.28565 2.25324 7.9728 2.12364C8.29829 2.06337 8.94024 2.08446 9.26573 2.16584Z" fill="#ADADAD"/>
<path d="M8.05032 3.38941C7.95991 3.41051 7.77305 3.48585 7.62839 3.55517C7.25768 3.73902 6.98343 4.0193 6.79958 4.40206C6.63684 4.73659 6.59766 4.9114 6.59766 5.27305C6.59766 5.63471 6.63684 5.80952 6.79958 6.14405C6.98945 6.53886 7.2607 6.81011 7.65551 6.99998C7.99004 7.16272 8.16485 7.2019 8.52651 7.2019C8.88817 7.2019 9.06297 7.16272 9.3975 6.99998C9.79231 6.81011 10.0636 6.53886 10.2534 6.14405C10.4162 5.80952 10.4554 5.63471 10.4554 5.27305C10.4554 4.9114 10.4162 4.73659 10.2534 4.40206C10.1449 4.17602 10.0756 4.07656 9.8978 3.90176C9.723 3.72395 9.62354 3.65463 9.3975 3.54613C9.24078 3.47079 9.04187 3.39544 8.95447 3.37736C8.7435 3.33215 8.24923 3.33818 8.05032 3.38941Z" fill="#ADADAD"/>
</svg>
