<svg width="65" height="40" viewBox="0 0 65 40" fill="none" xmlns="http://www.w3.org/2000/svg">
<rect x="0.40625" y="0.570312" width="63.6093" height="39.154" rx="5" fill="#265697"/>
<mask id="mask0_7123_11809" style="mask-type:luminance" maskUnits="userSpaceOnUse" x="10" y="13" width="44" height="15">
<path d="M32.9485 17.674C32.9243 19.5843 34.651 20.6505 35.9518 21.2843C37.2883 21.9347 37.7372 22.3517 37.7321 22.9332C37.7219 23.8234 36.666 24.2161 35.6776 24.2314C33.9535 24.2582 32.9511 23.766 32.154 23.3936L31.533 26.3C32.3326 26.6685 33.8132 26.9899 35.3486 27.0039C38.9526 27.0039 41.3106 25.2249 41.3233 22.4665C41.3373 18.9658 36.4811 18.772 36.5142 17.2072C36.5257 16.7328 36.9784 16.2265 37.9706 16.0977C38.4616 16.0327 39.8172 15.9829 41.3539 16.6907L41.9571 13.8787C41.1307 13.5777 40.0684 13.2895 38.746 13.2895C35.3537 13.2895 32.9677 15.0928 32.9485 17.674ZM47.7533 13.5318C47.0952 13.5318 46.5405 13.9157 46.2931 14.5049L41.1448 26.7973H44.7462L45.4629 24.8168H49.8639L50.2796 26.7973H53.4538L50.6839 13.5318H47.7533ZM48.257 17.1154L49.2964 22.0966H46.4499L48.257 17.1154ZM28.582 13.5318L25.7432 26.7973H29.175L32.0125 13.5318H28.582ZM23.5051 13.5318L19.933 22.5608L18.4881 14.8836C18.3185 14.0266 17.649 13.5318 16.9055 13.5318H11.066L10.9844 13.917C12.1831 14.1771 13.5451 14.5967 14.3702 15.0456C14.8753 15.3198 15.0194 15.5595 15.1851 16.2112L17.9219 26.7973H21.5488L27.109 13.5318H23.5051Z" fill="white"/>
</mask>
<g mask="url(#mask0_7123_11809)">
<path d="M6.53906 14.9278L48.384 -0.482681L57.9036 25.3668L16.059 40.7773" fill="white"/>
</g>
</svg>
