<svg width="19" height="28" viewBox="0 0 19 28" fill="none" xmlns="http://www.w3.org/2000/svg">
<path d="M8.36571 0.107678C8.12183 0.150091 7.6659 0.266726 7.3584 0.372759C4.64398 1.27933 2.76721 3.68626 2.53394 6.54913C2.29537 9.48092 3.83813 12.2166 6.47834 13.5314C7.46974 14.0191 8.43463 14.2418 9.60629 14.2471C10.8575 14.2471 11.764 14.035 12.8509 13.4889C14.8655 12.4763 16.2598 10.5996 16.6627 8.36228C16.7688 7.742 16.7688 6.50672 16.6574 5.88113C16.1326 2.92813 13.768 0.579522 10.8522 0.102377C10.2319 0.00164604 8.97539 0.00694847 8.36571 0.107678ZM9.93499 2.83271C10.1895 2.94404 10.3485 3.16671 10.3962 3.4636C10.4227 3.64915 10.4545 3.68096 10.762 3.82941C11.1915 4.04147 11.4725 4.31185 11.5202 4.56103C11.5944 4.96925 11.324 5.38808 10.9317 5.4623C10.6931 5.50472 10.5023 5.457 10.2425 5.28205C10.0569 5.15481 9.9774 5.13891 9.61689 5.13891C9.22457 5.13891 9.19276 5.14951 9.07082 5.28735C8.986 5.38278 8.94358 5.50472 8.94358 5.62665C8.94358 5.91294 9.15035 6.06669 9.85546 6.30526C10.6189 6.55974 11.0165 6.7718 11.3346 7.07929C12.3472 8.06539 12.0344 9.746 10.7196 10.3875C10.4492 10.52 10.4333 10.5465 10.3962 10.7639C10.3273 11.2305 9.96149 11.5592 9.56387 11.5061C9.19276 11.4637 8.986 11.2517 8.87466 10.8063C8.81635 10.5731 8.79514 10.5518 8.57247 10.4882C8.43993 10.4458 8.16955 10.3239 7.96279 10.2125C7.66059 10.0482 7.57047 9.96867 7.46974 9.76191C7.30009 9.43851 7.3425 9.19464 7.61288 8.92425C7.90447 8.63267 8.11123 8.61146 8.55657 8.82352C9.04962 9.0568 9.18216 9.09391 9.56387 9.09391C10.0834 9.09391 10.3856 8.88184 10.3962 8.50543C10.4015 8.18203 10.2425 8.06009 9.39952 7.7632C9.0019 7.62536 8.56187 7.4345 8.41873 7.33907C8.06352 7.1111 7.74542 6.7559 7.57577 6.39539C7.45383 6.13561 7.43263 6.02427 7.43263 5.61605C7.43263 5.19192 7.44853 5.10179 7.59698 4.7943C7.79844 4.38078 8.17485 3.99376 8.55657 3.8029C8.80574 3.68096 8.84285 3.64385 8.86936 3.4689C8.91708 3.16671 9.07612 2.94404 9.3306 2.83271C9.45254 2.77439 9.59038 2.72667 9.63279 2.72667C9.67521 2.72667 9.81305 2.77439 9.93499 2.83271Z" fill="white"/>
<path d="M1.28297 10.0162C1.25646 10.0268 1.16633 10.048 1.08681 10.0639C0.880046 10.1116 0.620267 10.3502 0.508934 10.5994C0.424108 10.7796 0.408203 10.9546 0.408203 11.7763C0.408203 13.2873 0.551347 14.0136 1.0709 15.0527C1.41551 15.7472 1.73891 16.1926 2.30618 16.728C2.78863 17.1946 3.21806 17.4968 3.80123 17.7884L4.21476 17.9951H6.52626H8.83776V16.8871V15.7737L8.58859 15.7419C5.41822 15.3019 2.77272 13.282 1.62227 10.4244C1.45792 10.0162 1.42081 9.96848 1.28297 10.0162Z" fill="white"/>
<path d="M17.7406 10.1858C17.5179 10.8804 16.7863 12.1103 16.1872 12.7995C14.7717 14.4218 12.8737 15.4344 10.6842 15.7419L10.4297 15.7737V16.8871V17.9951H12.7412H15.0527L15.4662 17.7884C16.2933 17.3748 17.0991 16.7068 17.6452 15.9858C18.2018 15.2436 18.6684 14.0931 18.8009 13.1494C18.8911 12.4973 18.8752 10.8751 18.7797 10.6365C18.6313 10.2866 18.3821 10.0904 18.0004 10.0215C17.8148 9.98969 17.8042 9.99499 17.7406 10.1858Z" fill="white"/>
<path d="M4.49611 19.5965C4.49611 19.6336 4.53853 19.9995 4.58624 20.4077L4.67637 21.1499H9.63337H14.5904L14.6805 20.4077C14.7282 19.9995 14.7706 19.6336 14.7706 19.5965C14.7759 19.5488 13.7156 19.5329 9.63337 19.5329C5.55113 19.5329 4.49081 19.5488 4.49611 19.5965Z" fill="white"/>
<path d="M4.87751 22.9098C4.89342 23.0211 4.99415 23.8747 5.10548 24.8078C5.31755 26.6633 5.37056 26.8807 5.66745 27.061C5.8371 27.167 5.92193 27.167 9.63306 27.167C13.3442 27.167 13.429 27.167 13.5987 27.061C13.8956 26.8807 13.9486 26.6633 14.1606 24.8078C14.272 23.8747 14.3727 23.0211 14.3886 22.9098L14.4204 22.7136H9.63306H4.8457L4.87751 22.9098Z" fill="white"/>
</svg>
